G04*
G04 #@! TF.GenerationSoftware,Altium Limited,Altium Designer,23.2.1 (34)*
G04*
G04 Layer_Physical_Order=2*
G04 Layer_Color=16711680*
%FSLAX25Y25*%
%MOIN*%
G70*
G04*
G04 #@! TF.SameCoordinates,B2F2E879-4ADF-417A-83DA-379EB80E5566*
G04*
G04*
G04 #@! TF.FilePolarity,Positive*
G04*
G01*
G75*
%ADD16C,0.00800*%
%ADD17C,0.01000*%
%ADD41R,0.11040X0.06506*%
%ADD57C,0.06181*%
%ADD67C,0.02500*%
%ADD69C,0.03937*%
%ADD70C,0.05039*%
%ADD71O,0.12000X0.06000*%
%ADD72R,0.04756X0.04756*%
%ADD73C,0.04756*%
%ADD74C,0.06299*%
%ADD75R,0.06299X0.06299*%
%ADD76C,0.12500*%
%ADD77C,0.03150*%
G36*
X215732Y803D02*
X803D01*
Y235417D01*
X215732D01*
Y803D01*
D02*
G37*
%LPC*%
G36*
X88500Y229546D02*
Y226000D01*
X92046D01*
X91833Y226795D01*
X91221Y227855D01*
X90355Y228721D01*
X89295Y229333D01*
X88500Y229546D01*
D02*
G37*
G36*
X86500D02*
X85705Y229333D01*
X84645Y228721D01*
X83779Y227855D01*
X83167Y226795D01*
X82954Y226000D01*
X86500D01*
Y229546D01*
D02*
G37*
G36*
X98018Y228937D02*
X96982D01*
X95980Y228669D01*
X95083Y228150D01*
X94350Y227417D01*
X93831Y226520D01*
X93563Y225518D01*
Y224482D01*
X93831Y223480D01*
X94350Y222583D01*
X95083Y221850D01*
X95980Y221331D01*
X96982Y221063D01*
X98018D01*
X99020Y221331D01*
X99917Y221850D01*
X100650Y222583D01*
X101169Y223480D01*
X101437Y224482D01*
Y225518D01*
X101169Y226520D01*
X100650Y227417D01*
X99917Y228150D01*
X99020Y228669D01*
X98018Y228937D01*
D02*
G37*
G36*
X78018D02*
X76982D01*
X75980Y228669D01*
X75083Y228150D01*
X74350Y227417D01*
X73831Y226520D01*
X73563Y225518D01*
Y224482D01*
X73831Y223480D01*
X74350Y222583D01*
X75083Y221850D01*
X75980Y221331D01*
X76982Y221063D01*
X78018D01*
X79020Y221331D01*
X79917Y221850D01*
X80650Y222583D01*
X81169Y223480D01*
X81437Y224482D01*
Y225518D01*
X81169Y226520D01*
X80650Y227417D01*
X79917Y228150D01*
X79020Y228669D01*
X78018Y228937D01*
D02*
G37*
G36*
X92046Y224000D02*
X88500D01*
Y220454D01*
X89295Y220667D01*
X90355Y221279D01*
X91221Y222145D01*
X91833Y223205D01*
X92046Y224000D01*
D02*
G37*
G36*
X86500D02*
X82954D01*
X83167Y223205D01*
X83779Y222145D01*
X84645Y221279D01*
X85705Y220667D01*
X86500Y220454D01*
Y224000D01*
D02*
G37*
G36*
X205616Y232053D02*
X204384D01*
X204307Y232037D01*
X204228D01*
X203020Y231797D01*
X202947Y231767D01*
X202870Y231751D01*
X201732Y231280D01*
X201666Y231237D01*
X201593Y231206D01*
X200570Y230522D01*
X200514Y230466D01*
X200448Y230422D01*
X199578Y229552D01*
X199534Y229486D01*
X199478Y229430D01*
X198794Y228407D01*
X198764Y228333D01*
X198720Y228268D01*
X198249Y227130D01*
X198233Y227053D01*
X198203Y226980D01*
X197963Y225772D01*
Y225693D01*
X197947Y225616D01*
Y224384D01*
X197963Y224307D01*
Y224228D01*
X198203Y223020D01*
X198233Y222947D01*
X198249Y222870D01*
X198720Y221732D01*
X198764Y221667D01*
X198794Y221593D01*
X199478Y220570D01*
X199534Y220514D01*
X199578Y220448D01*
X200448Y219578D01*
X200514Y219534D01*
X200570Y219478D01*
X201593Y218794D01*
X201666Y218763D01*
X201732Y218720D01*
X202870Y218249D01*
X202947Y218233D01*
X203020Y218203D01*
X204228Y217963D01*
X204307D01*
X204384Y217947D01*
X205616D01*
X205693Y217963D01*
X205772D01*
X206980Y218203D01*
X207053Y218233D01*
X207130Y218249D01*
X208268Y218720D01*
X208333Y218763D01*
X208406Y218794D01*
X209430Y219478D01*
X209486Y219534D01*
X209552Y219578D01*
X210422Y220448D01*
X210466Y220514D01*
X210522Y220570D01*
X211206Y221593D01*
X211237Y221667D01*
X211280Y221732D01*
X211752Y222870D01*
X211767Y222947D01*
X211797Y223020D01*
X212037Y224228D01*
Y224307D01*
X212053Y224384D01*
Y225616D01*
X212037Y225693D01*
Y225772D01*
X211797Y226980D01*
X211767Y227053D01*
X211752Y227130D01*
X211280Y228268D01*
X211237Y228333D01*
X211206Y228407D01*
X210522Y229430D01*
X210466Y229486D01*
X210422Y229552D01*
X209552Y230422D01*
X209486Y230466D01*
X209430Y230522D01*
X208406Y231206D01*
X208333Y231237D01*
X208268Y231280D01*
X207130Y231751D01*
X207053Y231767D01*
X206980Y231797D01*
X205772Y232037D01*
X205693D01*
X205616Y232053D01*
D02*
G37*
G36*
X10616D02*
X9384D01*
X9307Y232037D01*
X9228D01*
X8020Y231797D01*
X7947Y231767D01*
X7870Y231751D01*
X6732Y231280D01*
X6667Y231237D01*
X6594Y231206D01*
X5570Y230522D01*
X5514Y230466D01*
X5448Y230422D01*
X4578Y229552D01*
X4534Y229486D01*
X4478Y229430D01*
X3794Y228407D01*
X3763Y228333D01*
X3720Y228268D01*
X3249Y227130D01*
X3233Y227053D01*
X3203Y226980D01*
X2963Y225772D01*
Y225693D01*
X2947Y225616D01*
X2947Y225000D01*
Y224384D01*
X2963Y224307D01*
Y224228D01*
X3203Y223020D01*
X3233Y222947D01*
X3249Y222870D01*
X3720Y221732D01*
X3763Y221667D01*
X3794Y221593D01*
X4478Y220570D01*
X4534Y220514D01*
X4578Y220448D01*
X5448Y219578D01*
X5514Y219534D01*
X5570Y219478D01*
X6594Y218794D01*
X6667Y218763D01*
X6732Y218720D01*
X7870Y218249D01*
X7947Y218233D01*
X8020Y218203D01*
X9228Y217963D01*
X9307D01*
X9384Y217947D01*
X10616D01*
X10693Y217963D01*
X10772D01*
X11980Y218203D01*
X12053Y218233D01*
X12130Y218249D01*
X13268Y218720D01*
X13333Y218763D01*
X13407Y218794D01*
X14430Y219478D01*
X14486Y219534D01*
X14552Y219578D01*
X15422Y220448D01*
X15466Y220514D01*
X15522Y220570D01*
X16206Y221593D01*
X16236Y221667D01*
X16280Y221732D01*
X16751Y222870D01*
X16767Y222947D01*
X16797Y223020D01*
X17037Y224228D01*
Y224307D01*
X17053Y224384D01*
Y225616D01*
X17037Y225693D01*
Y225772D01*
X16797Y226980D01*
X16767Y227053D01*
X16751Y227130D01*
X16280Y228268D01*
X16237Y228333D01*
X16206Y228407D01*
X15522Y229430D01*
X15466Y229486D01*
X15422Y229552D01*
X14552Y230422D01*
X14486Y230466D01*
X14430Y230522D01*
X13407Y231206D01*
X13333Y231237D01*
X13268Y231280D01*
X12130Y231751D01*
X12053Y231767D01*
X11980Y231797D01*
X10772Y232037D01*
X10693D01*
X10616Y232053D01*
D02*
G37*
G36*
X179586Y223813D02*
X137500D01*
X136998Y223713D01*
X136572Y223428D01*
X120322Y207178D01*
X120037Y206752D01*
X119937Y206250D01*
Y185763D01*
X119912Y185753D01*
X119247Y185088D01*
X118888Y184220D01*
Y183280D01*
X119247Y182412D01*
X119912Y181747D01*
X120780Y181388D01*
X121720D01*
X122588Y181747D01*
X123253Y182412D01*
X123612Y183280D01*
Y184220D01*
X123253Y185088D01*
X122588Y185753D01*
X122563Y185763D01*
Y205706D01*
X138044Y221187D01*
X179042D01*
X183654Y216576D01*
X183621Y216077D01*
X183275Y215811D01*
X182668Y215020D01*
X182286Y214099D01*
X182156Y213110D01*
X182286Y212121D01*
X182668Y211200D01*
X183275Y210409D01*
X184066Y209802D01*
X184987Y209420D01*
X185976Y209290D01*
X191976D01*
X192965Y209420D01*
X193886Y209802D01*
X194677Y210409D01*
X195284Y211200D01*
X195666Y212121D01*
X195796Y213110D01*
X195666Y214099D01*
X195284Y215020D01*
X194677Y215811D01*
X193886Y216418D01*
X192965Y216800D01*
X191976Y216930D01*
X187012D01*
X180514Y223428D01*
X180088Y223713D01*
X179586Y223813D01*
D02*
G37*
G36*
X30559Y216930D02*
X24559D01*
X23570Y216800D01*
X22649Y216418D01*
X21858Y215811D01*
X21251Y215020D01*
X20869Y214099D01*
X20739Y213110D01*
X20869Y212121D01*
X21251Y211200D01*
X21858Y210409D01*
X22649Y209802D01*
X23570Y209420D01*
X24559Y209290D01*
X30559D01*
X31548Y209420D01*
X32469Y209802D01*
X33260Y210409D01*
X33867Y211200D01*
X34249Y212121D01*
X34379Y213110D01*
X34249Y214099D01*
X33867Y215020D01*
X33260Y215811D01*
X32469Y216418D01*
X31548Y216800D01*
X30559Y216930D01*
D02*
G37*
G36*
X161528Y212057D02*
X160657D01*
X159816Y211832D01*
X159062Y211396D01*
X158446Y210781D01*
X158011Y210027D01*
X157785Y209185D01*
Y208315D01*
X158011Y207473D01*
X158446Y206719D01*
X159062Y206104D01*
X159816Y205668D01*
X160657Y205443D01*
X161528D01*
X162369Y205668D01*
X163123Y206104D01*
X163739Y206719D01*
X164174Y207473D01*
X164400Y208315D01*
Y209185D01*
X164174Y210027D01*
X163739Y210781D01*
X163123Y211396D01*
X162369Y211832D01*
X161528Y212057D01*
D02*
G37*
G36*
X141843D02*
X140972D01*
X140131Y211832D01*
X139377Y211396D01*
X138761Y210781D01*
X138326Y210027D01*
X138100Y209185D01*
Y208315D01*
X138326Y207473D01*
X138761Y206719D01*
X139377Y206104D01*
X140131Y205668D01*
X140972Y205443D01*
X141843D01*
X142684Y205668D01*
X143438Y206104D01*
X144054Y206719D01*
X144489Y207473D01*
X144715Y208315D01*
Y209185D01*
X144489Y210027D01*
X144054Y210781D01*
X143438Y211396D01*
X142684Y211832D01*
X141843Y212057D01*
D02*
G37*
G36*
X108018Y228937D02*
X106982D01*
X105980Y228669D01*
X105083Y228150D01*
X104350Y227417D01*
X103831Y226520D01*
X103563Y225518D01*
Y224482D01*
X103831Y223480D01*
X104350Y222583D01*
X104696Y222236D01*
Y221384D01*
X94781Y211469D01*
X94331Y210795D01*
X94173Y210000D01*
Y203327D01*
X83147D01*
X82691Y203783D01*
X81969Y204200D01*
X81164Y204415D01*
X80331D01*
X79526Y204200D01*
X78804Y203783D01*
X78215Y203194D01*
X77798Y202472D01*
X77582Y201667D01*
Y200833D01*
X77798Y200028D01*
X78215Y199306D01*
X78804Y198717D01*
X79526Y198300D01*
X80331Y198085D01*
X81164D01*
X81969Y198300D01*
X82691Y198717D01*
X83147Y199173D01*
X96250D01*
X97045Y199331D01*
X97719Y199781D01*
X98169Y200455D01*
X98327Y201250D01*
Y209139D01*
X108242Y219054D01*
X108242Y219054D01*
X108692Y219728D01*
X108850Y220523D01*
Y221286D01*
X109020Y221331D01*
X109917Y221850D01*
X110650Y222583D01*
X111169Y223480D01*
X111437Y224482D01*
Y225518D01*
X111169Y226520D01*
X110650Y227417D01*
X109917Y228150D01*
X109020Y228669D01*
X108018Y228937D01*
D02*
G37*
G36*
X168750Y220063D02*
X139190D01*
X138687Y219963D01*
X138262Y219678D01*
X126572Y207988D01*
X126287Y207563D01*
X126187Y207060D01*
Y184513D01*
X126162Y184503D01*
X125497Y183838D01*
X125138Y182970D01*
Y182030D01*
X125497Y181162D01*
X126162Y180497D01*
X127030Y180138D01*
X127970D01*
X128838Y180497D01*
X129503Y181162D01*
X129862Y182030D01*
Y182970D01*
X129503Y183838D01*
X128838Y184503D01*
X128813Y184513D01*
Y206517D01*
X139733Y217437D01*
X168206D01*
X182073Y203571D01*
X182205Y203483D01*
X182156Y203110D01*
X182286Y202121D01*
X182668Y201200D01*
X183275Y200409D01*
X184066Y199802D01*
X184987Y199420D01*
X185976Y199290D01*
X191976D01*
X192965Y199420D01*
X193886Y199802D01*
X194677Y200409D01*
X195284Y201200D01*
X195666Y202121D01*
X195796Y203110D01*
X195666Y204099D01*
X195284Y205020D01*
X194677Y205811D01*
X193886Y206418D01*
X192965Y206800D01*
X191976Y206930D01*
X185976D01*
X184987Y206800D01*
X184066Y206418D01*
X183428Y205929D01*
X169678Y219678D01*
X169252Y219963D01*
X168750Y220063D01*
D02*
G37*
G36*
X30559Y206930D02*
X24559D01*
X23570Y206800D01*
X22649Y206418D01*
X21858Y205811D01*
X21251Y205020D01*
X20869Y204099D01*
X20739Y203110D01*
X20869Y202121D01*
X21251Y201200D01*
X21858Y200409D01*
X22649Y199802D01*
X23570Y199420D01*
X24559Y199290D01*
X30559D01*
X31548Y199420D01*
X32469Y199802D01*
X33260Y200409D01*
X33867Y201200D01*
X34249Y202121D01*
X34379Y203110D01*
X34249Y204099D01*
X33867Y205020D01*
X33260Y205811D01*
X32469Y206418D01*
X31548Y206800D01*
X30559Y206930D01*
D02*
G37*
G36*
X53913Y204415D02*
X47582D01*
Y198085D01*
X53913D01*
Y204415D01*
D02*
G37*
G36*
X191976Y196930D02*
X185976D01*
X184987Y196800D01*
X184066Y196418D01*
X183275Y195811D01*
X182668Y195020D01*
X182286Y194099D01*
X182156Y193110D01*
X182286Y192121D01*
X182668Y191200D01*
X183275Y190409D01*
X184066Y189802D01*
X184987Y189420D01*
X185976Y189290D01*
X191976D01*
X192965Y189420D01*
X193886Y189802D01*
X194677Y190409D01*
X195284Y191200D01*
X195666Y192121D01*
X195796Y193110D01*
X195666Y194099D01*
X195284Y195020D01*
X194677Y195811D01*
X193886Y196418D01*
X192965Y196800D01*
X191976Y196930D01*
D02*
G37*
G36*
X30559D02*
X24559D01*
X23570Y196800D01*
X22649Y196418D01*
X21858Y195811D01*
X21251Y195020D01*
X20869Y194099D01*
X20739Y193110D01*
X20869Y192121D01*
X21251Y191200D01*
X21858Y190409D01*
X22649Y189802D01*
X23570Y189420D01*
X24559Y189290D01*
X30559D01*
X31548Y189420D01*
X32469Y189802D01*
X33260Y190409D01*
X33867Y191200D01*
X34249Y192121D01*
X34379Y193110D01*
X34249Y194099D01*
X33867Y195020D01*
X33260Y195811D01*
X32469Y196418D01*
X31548Y196800D01*
X30559Y196930D01*
D02*
G37*
G36*
X191976Y186930D02*
X185976D01*
X184987Y186800D01*
X184066Y186418D01*
X183275Y185811D01*
X182668Y185020D01*
X182286Y184099D01*
X182156Y183110D01*
X182286Y182121D01*
X182668Y181200D01*
X183275Y180409D01*
X184066Y179802D01*
X184987Y179420D01*
X185976Y179290D01*
X191976D01*
X192965Y179420D01*
X193886Y179802D01*
X194677Y180409D01*
X195284Y181200D01*
X195666Y182121D01*
X195796Y183110D01*
X195666Y184099D01*
X195284Y185020D01*
X194677Y185811D01*
X193886Y186418D01*
X192965Y186800D01*
X191976Y186930D01*
D02*
G37*
G36*
X30559D02*
X24559D01*
X23570Y186800D01*
X22649Y186418D01*
X21858Y185811D01*
X21251Y185020D01*
X20869Y184099D01*
X20739Y183110D01*
X20869Y182121D01*
X21251Y181200D01*
X21858Y180409D01*
X22649Y179802D01*
X23570Y179420D01*
X24559Y179290D01*
X30559D01*
X31548Y179420D01*
X32469Y179802D01*
X33260Y180409D01*
X33867Y181200D01*
X34249Y182121D01*
X34379Y183110D01*
X34249Y184099D01*
X33867Y185020D01*
X33260Y185811D01*
X32469Y186418D01*
X31548Y186800D01*
X30559Y186930D01*
D02*
G37*
G36*
X129261Y177628D02*
X128240D01*
X127253Y177364D01*
X126369Y176853D01*
X125647Y176131D01*
X125136Y175247D01*
X124872Y174260D01*
Y174224D01*
X114117D01*
X113838Y174503D01*
X112970Y174862D01*
X112030D01*
X111162Y174503D01*
X110497Y173838D01*
X110138Y172970D01*
Y172030D01*
X110497Y171162D01*
X111162Y170497D01*
X112030Y170138D01*
X112970D01*
X113838Y170497D01*
X114503Y171162D01*
X114683Y171599D01*
X125514D01*
X125647Y171369D01*
X126369Y170647D01*
X127253Y170136D01*
X128240Y169872D01*
X129261D01*
X130247Y170136D01*
X131131Y170647D01*
X131853Y171369D01*
X132364Y172253D01*
X132628Y173240D01*
Y174260D01*
X132364Y175247D01*
X131853Y176131D01*
X131131Y176853D01*
X130247Y177364D01*
X129261Y177628D01*
D02*
G37*
G36*
X51747Y174997D02*
Y172250D01*
X54494D01*
X54361Y172747D01*
X53851Y173631D01*
X53128Y174353D01*
X52244Y174864D01*
X51747Y174997D01*
D02*
G37*
G36*
X49747D02*
X49251Y174864D01*
X48366Y174353D01*
X47644Y173631D01*
X47134Y172747D01*
X47001Y172250D01*
X49747D01*
Y174997D01*
D02*
G37*
G36*
X191976Y176930D02*
X185976D01*
X184987Y176800D01*
X184066Y176418D01*
X183275Y175811D01*
X182668Y175020D01*
X182286Y174099D01*
X182156Y173110D01*
X182286Y172121D01*
X182668Y171200D01*
X183275Y170409D01*
X184066Y169802D01*
X184987Y169420D01*
X185976Y169290D01*
X191976D01*
X192965Y169420D01*
X193886Y169802D01*
X194677Y170409D01*
X195284Y171200D01*
X195666Y172121D01*
X195796Y173110D01*
X195666Y174099D01*
X195284Y175020D01*
X194677Y175811D01*
X193886Y176418D01*
X192965Y176800D01*
X191976Y176930D01*
D02*
G37*
G36*
X30559D02*
X24559D01*
X23570Y176800D01*
X22649Y176418D01*
X21858Y175811D01*
X21251Y175020D01*
X20869Y174099D01*
X20739Y173110D01*
X20869Y172121D01*
X21251Y171200D01*
X21858Y170409D01*
X22649Y169802D01*
X23570Y169420D01*
X24559Y169290D01*
X30559D01*
X31548Y169420D01*
X32469Y169802D01*
X33260Y170409D01*
X33867Y171200D01*
X34249Y172121D01*
X34379Y173110D01*
X34249Y174099D01*
X33867Y175020D01*
X33260Y175811D01*
X32469Y176418D01*
X31548Y176800D01*
X30559Y176930D01*
D02*
G37*
G36*
X54494Y170250D02*
X51747D01*
Y167503D01*
X52244Y167636D01*
X53128Y168147D01*
X53851Y168869D01*
X54361Y169753D01*
X54494Y170250D01*
D02*
G37*
G36*
X49747D02*
X47001D01*
X47134Y169753D01*
X47644Y168869D01*
X48366Y168147D01*
X49251Y167636D01*
X49747Y167503D01*
Y170250D01*
D02*
G37*
G36*
X191976Y166930D02*
X185976D01*
X184987Y166800D01*
X184066Y166418D01*
X183275Y165811D01*
X182668Y165020D01*
X182286Y164099D01*
X182156Y163110D01*
X182286Y162121D01*
X182668Y161200D01*
X183275Y160409D01*
X184066Y159802D01*
X184987Y159420D01*
X185976Y159290D01*
X191976D01*
X192965Y159420D01*
X193886Y159802D01*
X194677Y160409D01*
X195284Y161200D01*
X195666Y162121D01*
X195796Y163110D01*
X195666Y164099D01*
X195284Y165020D01*
X194677Y165811D01*
X193886Y166418D01*
X192965Y166800D01*
X191976Y166930D01*
D02*
G37*
G36*
X30559D02*
X24559D01*
X23570Y166800D01*
X22649Y166418D01*
X21858Y165811D01*
X21251Y165020D01*
X20869Y164099D01*
X20739Y163110D01*
X20869Y162121D01*
X21251Y161200D01*
X21858Y160409D01*
X22649Y159802D01*
X23570Y159420D01*
X24559Y159290D01*
X30559D01*
X31548Y159420D01*
X32469Y159802D01*
X33260Y160409D01*
X33867Y161200D01*
X34249Y162121D01*
X34379Y163110D01*
X34249Y164099D01*
X33867Y165020D01*
X33260Y165811D01*
X32469Y166418D01*
X31548Y166800D01*
X30559Y166930D01*
D02*
G37*
G36*
X68018Y228937D02*
X66982D01*
X65980Y228669D01*
X65083Y228150D01*
X64350Y227417D01*
X63831Y226520D01*
X63563Y225518D01*
Y224482D01*
X63831Y223480D01*
X64350Y222583D01*
X65083Y221850D01*
X65980Y221331D01*
X66982Y221063D01*
X67595D01*
X68798Y219860D01*
Y158639D01*
X68898Y158137D01*
X69183Y157711D01*
X71331Y155563D01*
X71124Y155063D01*
X68152D01*
X62563Y160652D01*
Y221250D01*
X62463Y221752D01*
X62178Y222178D01*
X61437Y222919D01*
Y228937D01*
X53563D01*
Y221063D01*
X59581D01*
X59937Y220706D01*
Y160109D01*
X60037Y159606D01*
X60322Y159180D01*
X66681Y152822D01*
X67106Y152537D01*
X67609Y152437D01*
X72193D01*
X72290Y152245D01*
X72347Y151937D01*
X71747Y151338D01*
X71388Y150470D01*
Y149530D01*
X71747Y148662D01*
X72412Y147997D01*
X72437Y147987D01*
Y112500D01*
X72537Y111998D01*
X72822Y111572D01*
X77648Y106745D01*
X77638Y106720D01*
Y105780D01*
X77997Y104912D01*
X78662Y104247D01*
X79530Y103888D01*
X80470D01*
X81338Y104247D01*
X82003Y104912D01*
X82362Y105780D01*
Y106720D01*
X82003Y107588D01*
X81338Y108253D01*
X80470Y108612D01*
X79530D01*
X79505Y108602D01*
X75063Y113044D01*
Y147987D01*
X75088Y147997D01*
X75753Y148662D01*
X76112Y149530D01*
Y150470D01*
X75753Y151338D01*
X75153Y151937D01*
X75210Y152245D01*
X75307Y152437D01*
X83172D01*
X85248Y150362D01*
X85040Y149862D01*
X84530D01*
X83662Y149503D01*
X82997Y148838D01*
X82638Y147970D01*
Y147030D01*
X82923Y146342D01*
Y125794D01*
X83081Y124999D01*
X83531Y124325D01*
X85423Y122434D01*
Y103658D01*
X85138Y102970D01*
Y102030D01*
X85497Y101162D01*
X86162Y100497D01*
X87030Y100138D01*
X87970D01*
X88838Y100497D01*
X89503Y101162D01*
X89862Y102030D01*
Y102970D01*
X89577Y103658D01*
Y123294D01*
X89419Y124089D01*
X88969Y124763D01*
X88969Y124763D01*
X87077Y126655D01*
Y146342D01*
X87362Y147030D01*
Y147540D01*
X87862Y147748D01*
X112788Y122822D01*
X113214Y122537D01*
X113716Y122437D01*
X114693D01*
X114790Y122245D01*
X114847Y121937D01*
X114247Y121338D01*
X113888Y120470D01*
Y119530D01*
X114247Y118662D01*
X114912Y117997D01*
X114937Y117987D01*
Y110544D01*
X94456Y90063D01*
X75000D01*
X74498Y89963D01*
X74072Y89678D01*
X66572Y82178D01*
X66287Y81752D01*
X66187Y81250D01*
Y73263D01*
X66162Y73253D01*
X65497Y72588D01*
X65138Y71720D01*
Y70780D01*
X65497Y69912D01*
X66162Y69247D01*
X67030Y68888D01*
X67970D01*
X68838Y69247D01*
X69503Y69912D01*
X69862Y70780D01*
Y71720D01*
X69503Y72588D01*
X68838Y73253D01*
X68813Y73263D01*
Y80706D01*
X75544Y87437D01*
X95000D01*
X95502Y87537D01*
X95928Y87822D01*
X117178Y109072D01*
X117463Y109498D01*
X117563Y110000D01*
Y117987D01*
X117588Y117997D01*
X118253Y118662D01*
X118479Y119210D01*
X119021D01*
X119247Y118662D01*
X119912Y117997D01*
X119937Y117987D01*
Y110544D01*
X83206Y73813D01*
X75763D01*
X75753Y73838D01*
X75088Y74503D01*
X74220Y74862D01*
X73280D01*
X72412Y74503D01*
X71747Y73838D01*
X71388Y72970D01*
Y72030D01*
X71747Y71162D01*
X72412Y70497D01*
X73280Y70138D01*
X74220D01*
X75088Y70497D01*
X75753Y71162D01*
X75763Y71187D01*
X83750D01*
X84252Y71287D01*
X84678Y71572D01*
X114638Y101532D01*
X115138Y101324D01*
Y100780D01*
X115497Y99912D01*
X116162Y99247D01*
X117030Y98888D01*
X117970D01*
X118838Y99247D01*
X119503Y99912D01*
X119513Y99937D01*
X124891D01*
X125131Y99697D01*
X125557Y99413D01*
X126059Y99313D01*
X160626D01*
X161128Y99413D01*
X161554Y99697D01*
X170755Y108898D01*
X170780Y108888D01*
X171720D01*
X172588Y109247D01*
X173253Y109912D01*
X173479Y110459D01*
X174021D01*
X174247Y109912D01*
X174912Y109247D01*
X175780Y108888D01*
X176720D01*
X177588Y109247D01*
X178253Y109912D01*
X178512Y110539D01*
X179012Y110439D01*
Y108425D01*
X179112Y107923D01*
X179397Y107497D01*
X182435Y104458D01*
X182286Y104099D01*
X182156Y103110D01*
X182286Y102121D01*
X182668Y101200D01*
X183275Y100409D01*
X184066Y99802D01*
X184987Y99420D01*
X185976Y99290D01*
X191976D01*
X192965Y99420D01*
X193886Y99802D01*
X194677Y100409D01*
X195284Y101200D01*
X195666Y102121D01*
X195796Y103110D01*
X195666Y104099D01*
X195284Y105020D01*
X194677Y105811D01*
X193886Y106418D01*
X192965Y106800D01*
X191976Y106930D01*
X185976D01*
X184987Y106800D01*
X184152Y106454D01*
X181637Y108969D01*
Y123425D01*
X181537Y123927D01*
X181253Y124353D01*
X165928Y139678D01*
X165502Y139963D01*
X165000Y140063D01*
X152013D01*
X152003Y140088D01*
X151338Y140753D01*
X150470Y141112D01*
X149530D01*
X148662Y140753D01*
X147997Y140088D01*
X147638Y139220D01*
Y138280D01*
X147811Y137861D01*
X147477Y137361D01*
X147024D01*
X146156Y137001D01*
X145492Y136337D01*
X145132Y135468D01*
Y134529D01*
X145492Y133660D01*
X146156Y132996D01*
X147024Y132636D01*
X147964D01*
X147995Y132649D01*
X153850Y126793D01*
X154276Y126509D01*
X154779Y126409D01*
X165485D01*
X174937Y116956D01*
Y113263D01*
X174912Y113253D01*
X174247Y112588D01*
X174021Y112040D01*
X173479D01*
X173253Y112588D01*
X172588Y113253D01*
X172040Y113479D01*
Y114021D01*
X172588Y114247D01*
X173253Y114912D01*
X173612Y115780D01*
Y116720D01*
X173253Y117588D01*
X172588Y118253D01*
X171720Y118612D01*
X170780D01*
X169912Y118253D01*
X169247Y117588D01*
X168888Y116720D01*
Y115780D01*
X168898Y115755D01*
X160761Y107617D01*
X141627D01*
X141458Y108117D01*
X142003Y108662D01*
X142362Y109530D01*
Y110470D01*
X142352Y110495D01*
X143428Y111572D01*
X143713Y111998D01*
X143813Y112500D01*
Y126250D01*
X143713Y126752D01*
X143428Y127178D01*
X108428Y162178D01*
X108002Y162463D01*
X107500Y162563D01*
X104513D01*
X104503Y162588D01*
X103838Y163253D01*
X103287Y163481D01*
X103082Y164074D01*
X103169Y164205D01*
X103327Y165000D01*
X103327Y165000D01*
Y176639D01*
X104400Y177713D01*
X105088Y177997D01*
X105753Y178662D01*
X106112Y179530D01*
Y180470D01*
X105753Y181338D01*
X105088Y182003D01*
X104220Y182362D01*
X103280D01*
X102412Y182003D01*
X101747Y181338D01*
X101462Y180650D01*
X99781Y178969D01*
X99331Y178295D01*
X99173Y177500D01*
Y174443D01*
X98711Y174251D01*
X97106Y175856D01*
X96713Y176119D01*
X96250Y176211D01*
X96250Y176211D01*
X96165D01*
X95958Y176711D01*
X105341Y186093D01*
X105625Y186519D01*
X105725Y187021D01*
Y188869D01*
X112088Y195232D01*
X112253Y195136D01*
X113240Y194872D01*
X114260D01*
X115247Y195136D01*
X116131Y195647D01*
X116853Y196369D01*
X117364Y197253D01*
X117628Y198240D01*
Y199260D01*
X117364Y200247D01*
X116853Y201131D01*
X116131Y201853D01*
X115247Y202364D01*
X114260Y202628D01*
X113240D01*
X112253Y202364D01*
X111369Y201853D01*
X110647Y201131D01*
X110136Y200247D01*
X109872Y199260D01*
Y198240D01*
X110136Y197253D01*
X110232Y197088D01*
X103484Y190341D01*
X103200Y189915D01*
X103100Y189413D01*
Y187565D01*
X92552Y177017D01*
X91720Y177362D01*
X90780D01*
X89912Y177003D01*
X89247Y176338D01*
X89195Y176211D01*
X88044D01*
X88044Y176211D01*
X88044Y176211D01*
X87319D01*
X87319Y176211D01*
X87319Y176211D01*
X85215D01*
X85215Y176211D01*
X85215Y176211D01*
X84490D01*
X84490Y176211D01*
X84490Y176211D01*
X82387D01*
X82387Y176211D01*
X82387Y176211D01*
X81662D01*
X81662Y176211D01*
X81662Y176211D01*
X79558D01*
X79558Y176211D01*
X79558Y176211D01*
X78834D01*
X78834Y176211D01*
X78833Y176211D01*
X78750D01*
X78287Y176119D01*
X77894Y175856D01*
X77894Y175856D01*
X75394Y173356D01*
X75131Y172963D01*
X75039Y172500D01*
X75039Y172500D01*
Y172417D01*
X75039Y172416D01*
X75039Y172416D01*
Y169823D01*
X75039Y169823D01*
X75039Y169823D01*
Y169588D01*
X75039Y169588D01*
X75039Y169588D01*
Y166995D01*
X75039Y166995D01*
X75039Y166995D01*
Y166760D01*
X75039Y166760D01*
X75039Y166760D01*
Y166250D01*
X75039Y166250D01*
X75131Y165787D01*
X75394Y165394D01*
X77894Y162894D01*
X77894Y162894D01*
X78287Y162631D01*
X78750Y162539D01*
X78897D01*
X78897Y162539D01*
X78897Y162539D01*
X79495D01*
X79495Y162539D01*
X79495Y162539D01*
X81726D01*
X81726Y162539D01*
X81726Y162539D01*
X82537D01*
X83000Y162631D01*
X83393Y162894D01*
X83603Y163209D01*
X83631Y163195D01*
X83901Y163599D01*
X84405Y163936D01*
X85000Y164055D01*
X85595Y163936D01*
X86099Y163599D01*
X86370Y163195D01*
X86397Y163209D01*
X86607Y162894D01*
X87000Y162631D01*
X87463Y162539D01*
X87980D01*
X87980Y162539D01*
X87980Y162539D01*
X90211D01*
X90211Y162539D01*
X90211Y162539D01*
X93039Y162539D01*
X93039Y162539D01*
X93039Y162539D01*
X93637D01*
X93637Y162539D01*
X93637Y162539D01*
X94901D01*
X95001Y162039D01*
X94912Y162003D01*
X94247Y161338D01*
X93888Y160470D01*
Y159530D01*
X94247Y158662D01*
X94912Y157997D01*
X95600Y157713D01*
X100907Y152405D01*
X101581Y151955D01*
X102376Y151797D01*
X106112D01*
X106162Y151747D01*
X107030Y151388D01*
X107970D01*
X108838Y151747D01*
X109503Y152412D01*
X109862Y153280D01*
Y154220D01*
X109503Y155088D01*
X108838Y155753D01*
X107970Y156112D01*
X107030D01*
X106642Y155952D01*
X103236D01*
X99188Y160000D01*
X99705Y160518D01*
X100295Y160400D01*
X100497Y159912D01*
X101162Y159247D01*
X102030Y158888D01*
X102970D01*
X103838Y159247D01*
X104503Y159912D01*
X104513Y159937D01*
X106956D01*
X141187Y125706D01*
Y113044D01*
X140495Y112352D01*
X140470Y112362D01*
X139530D01*
X138662Y112003D01*
X137997Y111338D01*
X137638Y110470D01*
Y109530D01*
X137997Y108662D01*
X138542Y108117D01*
X138373Y107617D01*
X123209D01*
X123198Y107642D01*
X122534Y108307D01*
X122157Y108463D01*
X122060Y108953D01*
X122178Y109072D01*
X122463Y109498D01*
X122563Y110000D01*
Y117987D01*
X122588Y117997D01*
X123253Y118662D01*
X123612Y119530D01*
Y120470D01*
X123253Y121338D01*
X122743Y121848D01*
X122886Y122341D01*
X123265Y122378D01*
X126187Y119456D01*
Y113263D01*
X126162Y113253D01*
X125497Y112588D01*
X125138Y111720D01*
Y110780D01*
X125497Y109912D01*
X126162Y109247D01*
X127030Y108888D01*
X127970D01*
X128838Y109247D01*
X129503Y109912D01*
X129862Y110780D01*
Y111152D01*
X130362Y111486D01*
X130780Y111313D01*
X131720D01*
X132588Y111673D01*
X133253Y112337D01*
X133612Y113205D01*
Y114145D01*
X133253Y115013D01*
X132588Y115678D01*
X132563Y115688D01*
Y120000D01*
X132463Y120502D01*
X132178Y120928D01*
X125928Y127178D01*
X125502Y127463D01*
X125000Y127563D01*
X115544D01*
X112218Y130888D01*
X112426Y131388D01*
X112970D01*
X113838Y131747D01*
X114503Y132412D01*
X114513Y132437D01*
X122987D01*
X122997Y132412D01*
X123662Y131747D01*
X124530Y131388D01*
X125470D01*
X126338Y131747D01*
X127003Y132412D01*
X127362Y133280D01*
Y134220D01*
X127003Y135088D01*
X126338Y135753D01*
X125470Y136112D01*
X124530D01*
X123662Y135753D01*
X122997Y135088D01*
X122987Y135063D01*
X114513D01*
X114503Y135088D01*
X113838Y135753D01*
X112970Y136112D01*
X112030D01*
X111162Y135753D01*
X110497Y135088D01*
X110138Y134220D01*
Y133676D01*
X109638Y133468D01*
X85928Y157178D01*
X85502Y157463D01*
X85000Y157563D01*
X73044D01*
X71424Y159183D01*
Y220404D01*
X71324Y220906D01*
X71039Y221332D01*
X70219Y222152D01*
X70650Y222583D01*
X71169Y223480D01*
X71437Y224482D01*
Y225518D01*
X71169Y226520D01*
X70650Y227417D01*
X69917Y228150D01*
X69020Y228669D01*
X68018Y228937D01*
D02*
G37*
G36*
X152970Y158612D02*
X152030D01*
X151162Y158253D01*
X150497Y157588D01*
X150138Y156720D01*
Y155780D01*
X150497Y154912D01*
X151162Y154247D01*
X152030Y153888D01*
X152970D01*
X153838Y154247D01*
X154503Y154912D01*
X154513Y154937D01*
X181386D01*
X182279Y154044D01*
X182156Y153110D01*
X182286Y152121D01*
X182668Y151200D01*
X183275Y150409D01*
X184066Y149802D01*
X184987Y149420D01*
X185976Y149290D01*
X191976D01*
X192965Y149420D01*
X193886Y149802D01*
X194677Y150409D01*
X195284Y151200D01*
X195666Y152121D01*
X195796Y153110D01*
X195666Y154099D01*
X195284Y155020D01*
X194677Y155811D01*
X193886Y156418D01*
X192965Y156800D01*
X191976Y156930D01*
X185976D01*
X184987Y156800D01*
X184066Y156418D01*
X183812Y156224D01*
X182858Y157178D01*
X182432Y157463D01*
X181929Y157563D01*
X154513D01*
X154503Y157588D01*
X153838Y158253D01*
X152970Y158612D01*
D02*
G37*
G36*
X30559Y156930D02*
X24559D01*
X23570Y156800D01*
X22649Y156418D01*
X21858Y155811D01*
X21251Y155020D01*
X20869Y154099D01*
X20739Y153110D01*
X20869Y152121D01*
X21251Y151200D01*
X21858Y150409D01*
X22649Y149802D01*
X23570Y149420D01*
X24559Y149290D01*
X30559D01*
X31548Y149420D01*
X32469Y149802D01*
X33260Y150409D01*
X33867Y151200D01*
X34249Y152121D01*
X34379Y153110D01*
X34249Y154099D01*
X33867Y155020D01*
X33260Y155811D01*
X32469Y156418D01*
X31548Y156800D01*
X30559Y156930D01*
D02*
G37*
G36*
X140470Y158445D02*
X139530D01*
X138662Y158085D01*
X137997Y157421D01*
X137638Y156552D01*
Y155613D01*
X137997Y154744D01*
X138662Y154080D01*
X139530Y153720D01*
X140470D01*
X140614Y153780D01*
X147822Y146572D01*
X148248Y146287D01*
X148750Y146187D01*
X180706D01*
X182435Y144458D01*
X182286Y144099D01*
X182156Y143110D01*
X182286Y142121D01*
X182668Y141200D01*
X183275Y140409D01*
X184066Y139802D01*
X184987Y139420D01*
X185976Y139290D01*
X191976D01*
X192965Y139420D01*
X193886Y139802D01*
X194677Y140409D01*
X195284Y141200D01*
X195666Y142121D01*
X195796Y143110D01*
X195666Y144099D01*
X195284Y145020D01*
X194677Y145811D01*
X193886Y146418D01*
X192965Y146800D01*
X191976Y146930D01*
X185976D01*
X184987Y146800D01*
X184152Y146454D01*
X182178Y148428D01*
X181752Y148713D01*
X181250Y148813D01*
X149294D01*
X142362Y155744D01*
Y156552D01*
X142003Y157421D01*
X141338Y158085D01*
X140470Y158445D01*
D02*
G37*
G36*
X30559Y146930D02*
X24559D01*
X23570Y146800D01*
X22649Y146418D01*
X21858Y145811D01*
X21251Y145020D01*
X20869Y144099D01*
X20739Y143110D01*
X20869Y142121D01*
X21251Y141200D01*
X21858Y140409D01*
X22649Y139802D01*
X23570Y139420D01*
X24559Y139290D01*
X30559D01*
X31548Y139420D01*
X32469Y139802D01*
X33260Y140409D01*
X33867Y141200D01*
X34249Y142121D01*
X34379Y143110D01*
X34249Y144099D01*
X33867Y145020D01*
X33260Y145811D01*
X32469Y146418D01*
X31548Y146800D01*
X30559Y146930D01*
D02*
G37*
G36*
X191976Y136930D02*
X185976D01*
X184987Y136800D01*
X184066Y136418D01*
X183275Y135811D01*
X182668Y135020D01*
X182286Y134099D01*
X182156Y133110D01*
X182286Y132121D01*
X182668Y131200D01*
X183275Y130409D01*
X184066Y129802D01*
X184987Y129420D01*
X185976Y129290D01*
X191976D01*
X192965Y129420D01*
X193886Y129802D01*
X194677Y130409D01*
X195284Y131200D01*
X195666Y132121D01*
X195796Y133110D01*
X195666Y134099D01*
X195284Y135020D01*
X194677Y135811D01*
X193886Y136418D01*
X192965Y136800D01*
X191976Y136930D01*
D02*
G37*
G36*
X30559D02*
X24559D01*
X23570Y136800D01*
X22649Y136418D01*
X21858Y135811D01*
X21251Y135020D01*
X20869Y134099D01*
X20739Y133110D01*
X20869Y132121D01*
X21251Y131200D01*
X21858Y130409D01*
X22649Y129802D01*
X23570Y129420D01*
X24559Y129290D01*
X30559D01*
X31548Y129420D01*
X32469Y129802D01*
X33260Y130409D01*
X33867Y131200D01*
X34249Y132121D01*
X34379Y133110D01*
X34249Y134099D01*
X33867Y135020D01*
X33260Y135811D01*
X32469Y136418D01*
X31548Y136800D01*
X30559Y136930D01*
D02*
G37*
G36*
X191976Y126930D02*
X185976D01*
X184987Y126800D01*
X184066Y126418D01*
X183275Y125811D01*
X182668Y125020D01*
X182286Y124099D01*
X182156Y123110D01*
X182286Y122121D01*
X182668Y121200D01*
X183275Y120409D01*
X184066Y119802D01*
X184987Y119420D01*
X185976Y119290D01*
X191976D01*
X192965Y119420D01*
X193886Y119802D01*
X194677Y120409D01*
X195284Y121200D01*
X195666Y122121D01*
X195796Y123110D01*
X195666Y124099D01*
X195284Y125020D01*
X194677Y125811D01*
X193886Y126418D01*
X192965Y126800D01*
X191976Y126930D01*
D02*
G37*
G36*
X30559D02*
X24559D01*
X23570Y126800D01*
X22649Y126418D01*
X21858Y125811D01*
X21251Y125020D01*
X20869Y124099D01*
X20739Y123110D01*
X20869Y122121D01*
X21251Y121200D01*
X21858Y120409D01*
X22649Y119802D01*
X23570Y119420D01*
X24559Y119290D01*
X30559D01*
X31548Y119420D01*
X32469Y119802D01*
X33260Y120409D01*
X33867Y121200D01*
X34249Y122121D01*
X34379Y123110D01*
X34249Y124099D01*
X33867Y125020D01*
X33260Y125811D01*
X32469Y126418D01*
X31548Y126800D01*
X30559Y126930D01*
D02*
G37*
G36*
X56720Y121112D02*
X55780D01*
X54912Y120753D01*
X54247Y120088D01*
X54237Y120063D01*
X50000D01*
X49498Y119963D01*
X49072Y119678D01*
X36572Y107178D01*
X36287Y106752D01*
X36187Y106250D01*
Y99402D01*
X32884Y96100D01*
X32469Y96418D01*
X31548Y96800D01*
X30559Y96930D01*
X24559D01*
X23570Y96800D01*
X22649Y96418D01*
X21858Y95811D01*
X21251Y95020D01*
X20869Y94099D01*
X20739Y93110D01*
X20869Y92121D01*
X21251Y91200D01*
X21858Y90409D01*
X22649Y89802D01*
X23570Y89420D01*
X24559Y89290D01*
X30559D01*
X31548Y89420D01*
X32469Y89802D01*
X33260Y90409D01*
X33867Y91200D01*
X34249Y92121D01*
X34379Y93110D01*
X34289Y93792D01*
X38428Y97931D01*
X38713Y98356D01*
X38813Y98859D01*
Y105706D01*
X50544Y117437D01*
X54237D01*
X54247Y117412D01*
X54912Y116747D01*
X55780Y116388D01*
X56720D01*
X57588Y116747D01*
X58253Y117412D01*
X58612Y118280D01*
Y119220D01*
X58253Y120088D01*
X57588Y120753D01*
X56720Y121112D01*
D02*
G37*
G36*
X191976Y116930D02*
X185976D01*
X184987Y116800D01*
X184066Y116418D01*
X183275Y115811D01*
X182668Y115020D01*
X182286Y114099D01*
X182156Y113110D01*
X182286Y112121D01*
X182668Y111200D01*
X183275Y110409D01*
X184066Y109802D01*
X184987Y109420D01*
X185976Y109290D01*
X191976D01*
X192965Y109420D01*
X193886Y109802D01*
X194677Y110409D01*
X195284Y111200D01*
X195666Y112121D01*
X195796Y113110D01*
X195666Y114099D01*
X195284Y115020D01*
X194677Y115811D01*
X193886Y116418D01*
X192965Y116800D01*
X191976Y116930D01*
D02*
G37*
G36*
X30559D02*
X24559D01*
X23570Y116800D01*
X22649Y116418D01*
X21858Y115811D01*
X21251Y115020D01*
X20869Y114099D01*
X20739Y113110D01*
X20869Y112121D01*
X21251Y111200D01*
X21858Y110409D01*
X22649Y109802D01*
X23570Y109420D01*
X24559Y109290D01*
X30559D01*
X31548Y109420D01*
X32469Y109802D01*
X33260Y110409D01*
X33867Y111200D01*
X34249Y112121D01*
X34379Y113110D01*
X34249Y114099D01*
X33867Y115020D01*
X33260Y115811D01*
X32469Y116418D01*
X31548Y116800D01*
X30559Y116930D01*
D02*
G37*
G36*
Y106930D02*
X24559D01*
X23570Y106800D01*
X22649Y106418D01*
X21858Y105811D01*
X21251Y105020D01*
X20869Y104099D01*
X20739Y103110D01*
X20869Y102121D01*
X21251Y101200D01*
X21858Y100409D01*
X22649Y99802D01*
X23570Y99420D01*
X24559Y99290D01*
X30559D01*
X31548Y99420D01*
X32469Y99802D01*
X33260Y100409D01*
X33867Y101200D01*
X34249Y102121D01*
X34379Y103110D01*
X34249Y104099D01*
X33867Y105020D01*
X33260Y105811D01*
X32469Y106418D01*
X31548Y106800D01*
X30559Y106930D01*
D02*
G37*
G36*
X69220Y127362D02*
X68280D01*
X67412Y127003D01*
X66747Y126338D01*
X66388Y125470D01*
Y124530D01*
X66747Y123662D01*
X67412Y122997D01*
X67437Y122987D01*
Y102013D01*
X67412Y102003D01*
X66747Y101338D01*
X66388Y100470D01*
Y99530D01*
X66747Y98662D01*
X67412Y97997D01*
X68280Y97638D01*
X69220D01*
X70088Y97997D01*
X70753Y98662D01*
X71112Y99530D01*
Y100470D01*
X70753Y101338D01*
X70088Y102003D01*
X70063Y102013D01*
Y122987D01*
X70088Y122997D01*
X70753Y123662D01*
X71112Y124530D01*
Y125470D01*
X70753Y126338D01*
X70088Y127003D01*
X69220Y127362D01*
D02*
G37*
G36*
X167152Y96544D02*
X166212D01*
X165344Y96185D01*
X164680Y95520D01*
X164519Y95132D01*
X163964Y94577D01*
X147408D01*
X146720Y94862D01*
X145780D01*
X144912Y94503D01*
X144247Y93838D01*
X143888Y92970D01*
Y92030D01*
X144247Y91162D01*
X144912Y90497D01*
X145780Y90138D01*
X146720D01*
X147408Y90423D01*
X154173D01*
Y89258D01*
X149943D01*
Y81177D01*
X162557D01*
Y89258D01*
X158327D01*
Y90423D01*
X164824D01*
X165619Y90581D01*
X166293Y91031D01*
X167082Y91820D01*
X167152D01*
X168020Y92180D01*
X168685Y92844D01*
X169044Y93712D01*
Y94652D01*
X168685Y95520D01*
X168020Y96185D01*
X167152Y96544D01*
D02*
G37*
G36*
X191976Y96930D02*
X185976D01*
X184987Y96800D01*
X184066Y96418D01*
X183275Y95811D01*
X182668Y95020D01*
X182286Y94099D01*
X182156Y93110D01*
X182286Y92121D01*
X182668Y91200D01*
X183275Y90409D01*
X184066Y89802D01*
X184987Y89420D01*
X185976Y89290D01*
X191976D01*
X192965Y89420D01*
X193886Y89802D01*
X194677Y90409D01*
X195284Y91200D01*
X195666Y92121D01*
X195796Y93110D01*
X195666Y94099D01*
X195284Y95020D01*
X194677Y95811D01*
X193886Y96418D01*
X192965Y96800D01*
X191976Y96930D01*
D02*
G37*
G36*
X122970Y88612D02*
X122030D01*
X121162Y88253D01*
X120497Y87588D01*
X120138Y86720D01*
Y85780D01*
X120148Y85755D01*
X109112Y74718D01*
X108612Y74926D01*
Y75470D01*
X108253Y76338D01*
X107588Y77003D01*
X106720Y77362D01*
X105780D01*
X104912Y77003D01*
X104247Y76338D01*
X104002Y75745D01*
X103661Y75517D01*
X81956Y53813D01*
X34287D01*
X34249Y54099D01*
X34085Y54494D01*
X34419Y54937D01*
X80000D01*
X80502Y55037D01*
X80928Y55322D01*
X107005Y81398D01*
X107030Y81388D01*
X107970D01*
X108838Y81747D01*
X109503Y82412D01*
X109862Y83280D01*
Y84220D01*
X109503Y85088D01*
X108838Y85753D01*
X107970Y86112D01*
X107030D01*
X106162Y85753D01*
X105497Y85088D01*
X105138Y84220D01*
Y83280D01*
X105148Y83255D01*
X79456Y57563D01*
X34963D01*
X32881Y59644D01*
X32914Y60143D01*
X33260Y60409D01*
X33867Y61200D01*
X34249Y62121D01*
X34379Y63110D01*
X34249Y64099D01*
X33867Y65020D01*
X33260Y65811D01*
X32469Y66418D01*
X31548Y66800D01*
X30559Y66930D01*
X24559D01*
X23570Y66800D01*
X22649Y66418D01*
X21858Y65811D01*
X21251Y65020D01*
X20869Y64099D01*
X20739Y63110D01*
X20869Y62121D01*
X21251Y61200D01*
X21858Y60409D01*
X22649Y59802D01*
X23570Y59420D01*
X24559Y59290D01*
X29523D01*
X31503Y57310D01*
X31269Y56837D01*
X30559Y56930D01*
X24559D01*
X23570Y56800D01*
X22649Y56418D01*
X21858Y55811D01*
X21251Y55020D01*
X20869Y54099D01*
X20739Y53110D01*
X20869Y52121D01*
X21251Y51200D01*
X21858Y50409D01*
X22649Y49802D01*
X23570Y49420D01*
X24559Y49290D01*
X30559D01*
X31548Y49420D01*
X32469Y49802D01*
X33260Y50409D01*
X33858Y51187D01*
X82500D01*
X83002Y51287D01*
X83428Y51572D01*
X104883Y73027D01*
X104912Y72997D01*
X105780Y72638D01*
X106324D01*
X106532Y72138D01*
X84456Y50063D01*
X47500D01*
X46998Y49963D01*
X46572Y49678D01*
X41316Y44423D01*
X34115D01*
X33867Y45020D01*
X33260Y45811D01*
X32469Y46418D01*
X31548Y46800D01*
X30559Y46930D01*
X24559D01*
X23570Y46800D01*
X22649Y46418D01*
X21858Y45811D01*
X21251Y45020D01*
X20869Y44099D01*
X20739Y43110D01*
X20869Y42121D01*
X21251Y41200D01*
X21858Y40409D01*
X22649Y39802D01*
X23570Y39420D01*
X24559Y39290D01*
X30559D01*
X31548Y39420D01*
X32469Y39802D01*
X33260Y40409D01*
X33867Y41200D01*
X34115Y41797D01*
X41860D01*
X42362Y41897D01*
X42788Y42182D01*
X48044Y47437D01*
X85000D01*
X85502Y47537D01*
X85928Y47822D01*
X116478Y78371D01*
X116926Y78113D01*
X116899Y78010D01*
Y76990D01*
X117163Y76003D01*
X117674Y75119D01*
X118395Y74397D01*
X119280Y73886D01*
X120266Y73622D01*
X121287D01*
X122273Y73886D01*
X123158Y74397D01*
X123880Y75119D01*
X124390Y76003D01*
X124440Y76187D01*
X130000D01*
X130502Y76287D01*
X130928Y76572D01*
X132005Y77648D01*
X132030Y77638D01*
X132639D01*
X132738Y77138D01*
X132412Y77003D01*
X131747Y76338D01*
X131388Y75470D01*
Y74530D01*
X131398Y74505D01*
X93513Y36619D01*
X93013Y36827D01*
Y45677D01*
X92933Y46082D01*
X92703Y46425D01*
X92360Y46654D01*
X91956Y46735D01*
X52755D01*
X52351Y46654D01*
X52008Y46425D01*
X51778Y46082D01*
X51698Y45677D01*
Y36377D01*
X51778Y35972D01*
X52008Y35629D01*
X52351Y35400D01*
X52755Y35319D01*
X91506D01*
X91713Y34819D01*
X91316Y34423D01*
X34115D01*
X33867Y35020D01*
X33260Y35811D01*
X32469Y36418D01*
X31548Y36800D01*
X30559Y36930D01*
X24559D01*
X23570Y36800D01*
X22649Y36418D01*
X21858Y35811D01*
X21251Y35020D01*
X20869Y34099D01*
X20739Y33110D01*
X20869Y32121D01*
X21251Y31200D01*
X21858Y30409D01*
X22649Y29802D01*
X23570Y29420D01*
X24559Y29290D01*
X30559D01*
X31548Y29420D01*
X32469Y29802D01*
X33260Y30409D01*
X33867Y31200D01*
X34115Y31797D01*
X91860D01*
X92362Y31897D01*
X92788Y32182D01*
X133255Y72648D01*
X133280Y72638D01*
X134220D01*
X135088Y72997D01*
X135753Y73662D01*
X136112Y74530D01*
Y75470D01*
X135753Y76338D01*
X135088Y77003D01*
X134220Y77362D01*
X133611D01*
X133512Y77862D01*
X133838Y77997D01*
X134503Y78662D01*
X134862Y79530D01*
Y80470D01*
X134503Y81338D01*
X133838Y82003D01*
X132970Y82362D01*
X132030D01*
X131162Y82003D01*
X130497Y81338D01*
X130138Y80470D01*
Y79530D01*
X130148Y79505D01*
X129456Y78813D01*
X124440D01*
X124390Y78997D01*
X123880Y79881D01*
X123158Y80603D01*
X122273Y81114D01*
X121287Y81378D01*
X120266D01*
X120164Y81351D01*
X119905Y81799D01*
X122005Y83898D01*
X122030Y83888D01*
X122970D01*
X123838Y84247D01*
X124503Y84912D01*
X124862Y85780D01*
Y86720D01*
X124503Y87588D01*
X123838Y88253D01*
X122970Y88612D01*
D02*
G37*
G36*
X191976Y86930D02*
X185976D01*
X184987Y86800D01*
X184066Y86418D01*
X183275Y85811D01*
X182668Y85020D01*
X182286Y84099D01*
X182156Y83110D01*
X182286Y82121D01*
X182668Y81200D01*
X183275Y80409D01*
X184066Y79802D01*
X184987Y79420D01*
X185976Y79290D01*
X191976D01*
X192965Y79420D01*
X193886Y79802D01*
X194677Y80409D01*
X195284Y81200D01*
X195666Y82121D01*
X195796Y83110D01*
X195666Y84099D01*
X195284Y85020D01*
X194677Y85811D01*
X193886Y86418D01*
X192965Y86800D01*
X191976Y86930D01*
D02*
G37*
G36*
X30559D02*
X24559D01*
X23570Y86800D01*
X22649Y86418D01*
X21858Y85811D01*
X21251Y85020D01*
X20869Y84099D01*
X20739Y83110D01*
X20869Y82121D01*
X21251Y81200D01*
X21858Y80409D01*
X22649Y79802D01*
X23570Y79420D01*
X24559Y79290D01*
X30559D01*
X31548Y79420D01*
X32469Y79802D01*
X33260Y80409D01*
X33867Y81200D01*
X34249Y82121D01*
X34379Y83110D01*
X34249Y84099D01*
X33867Y85020D01*
X33260Y85811D01*
X32469Y86418D01*
X31548Y86800D01*
X30559Y86930D01*
D02*
G37*
G36*
X162770Y79036D02*
X157250D01*
Y75783D01*
X162770D01*
Y79036D01*
D02*
G37*
G36*
X155250D02*
X149730D01*
Y75783D01*
X155250D01*
Y79036D01*
D02*
G37*
G36*
X162770Y73782D02*
X157250D01*
Y70529D01*
X162770D01*
Y73782D01*
D02*
G37*
G36*
X155250D02*
X149730D01*
Y70529D01*
X155250D01*
Y73782D01*
D02*
G37*
G36*
X111720Y118612D02*
X110780D01*
X109912Y118253D01*
X109247Y117588D01*
X108888Y116720D01*
Y115780D01*
X109247Y114912D01*
X109912Y114247D01*
X109937Y114237D01*
Y111794D01*
X95706Y97563D01*
X73750D01*
X73248Y97463D01*
X72822Y97178D01*
X60322Y84678D01*
X60037Y84252D01*
X59937Y83750D01*
Y74513D01*
X59912Y74503D01*
X59247Y73838D01*
X58888Y72970D01*
Y72030D01*
X59247Y71162D01*
X59912Y70497D01*
X60780Y70138D01*
X61720D01*
X62588Y70497D01*
X63253Y71162D01*
X63612Y72030D01*
Y72970D01*
X63253Y73838D01*
X62588Y74503D01*
X62563Y74513D01*
Y83206D01*
X74294Y94937D01*
X96250D01*
X96752Y95037D01*
X97178Y95322D01*
X112178Y110322D01*
X112463Y110748D01*
X112563Y111250D01*
Y114237D01*
X112588Y114247D01*
X113253Y114912D01*
X113612Y115780D01*
Y116720D01*
X113253Y117588D01*
X112588Y118253D01*
X111720Y118612D01*
D02*
G37*
G36*
X191976Y76930D02*
X185976D01*
X184987Y76800D01*
X184066Y76418D01*
X183275Y75811D01*
X182668Y75020D01*
X182286Y74099D01*
X182156Y73110D01*
X182286Y72121D01*
X182668Y71200D01*
X183275Y70409D01*
X184066Y69802D01*
X184987Y69420D01*
X185976Y69290D01*
X191976D01*
X192965Y69420D01*
X193886Y69802D01*
X194677Y70409D01*
X195284Y71200D01*
X195666Y72121D01*
X195796Y73110D01*
X195666Y74099D01*
X195284Y75020D01*
X194677Y75811D01*
X193886Y76418D01*
X192965Y76800D01*
X191976Y76930D01*
D02*
G37*
G36*
X30559D02*
X24559D01*
X23570Y76800D01*
X22649Y76418D01*
X21858Y75811D01*
X21251Y75020D01*
X20869Y74099D01*
X20739Y73110D01*
X20869Y72121D01*
X21251Y71200D01*
X21858Y70409D01*
X22649Y69802D01*
X23570Y69420D01*
X24559Y69290D01*
X30559D01*
X31548Y69420D01*
X32469Y69802D01*
X33260Y70409D01*
X33867Y71200D01*
X34249Y72121D01*
X34379Y73110D01*
X34249Y74099D01*
X33867Y75020D01*
X33260Y75811D01*
X32469Y76418D01*
X31548Y76800D01*
X30559Y76930D01*
D02*
G37*
G36*
X136720Y72362D02*
X135780D01*
X134912Y72003D01*
X134247Y71338D01*
X133888Y70470D01*
Y69530D01*
X133898Y69505D01*
X88816Y24423D01*
X34115D01*
X33867Y25020D01*
X33260Y25811D01*
X32469Y26418D01*
X31548Y26800D01*
X30559Y26930D01*
X24559D01*
X23570Y26800D01*
X22649Y26418D01*
X21858Y25811D01*
X21251Y25020D01*
X20869Y24099D01*
X20739Y23110D01*
X20869Y22121D01*
X21251Y21200D01*
X21858Y20409D01*
X22649Y19802D01*
X23570Y19420D01*
X24559Y19290D01*
X30559D01*
X31548Y19420D01*
X32469Y19802D01*
X33260Y20409D01*
X33867Y21200D01*
X34115Y21797D01*
X57522D01*
X57595Y21602D01*
X57609Y21297D01*
X57063Y20982D01*
X56550Y20469D01*
X56187Y19841D01*
X56000Y19140D01*
Y18414D01*
X56187Y17713D01*
X56550Y17085D01*
X57063Y16572D01*
X57692Y16209D01*
X58393Y16021D01*
X59118D01*
X59819Y16209D01*
X60448Y16572D01*
X60961Y17085D01*
X61324Y17713D01*
X61511Y18414D01*
Y19140D01*
X61324Y19841D01*
X60961Y20469D01*
X60448Y20982D01*
X59902Y21297D01*
X59916Y21602D01*
X59989Y21797D01*
X88922D01*
X88995Y21602D01*
X89009Y21297D01*
X88463Y20982D01*
X87950Y20469D01*
X87587Y19841D01*
X87400Y19140D01*
Y18414D01*
X87587Y17713D01*
X87950Y17085D01*
X88463Y16572D01*
X89092Y16209D01*
X89793Y16021D01*
X90518D01*
X91219Y16209D01*
X91848Y16572D01*
X92361Y17085D01*
X92724Y17713D01*
X92911Y18414D01*
Y19140D01*
X92724Y19841D01*
X92361Y20469D01*
X91848Y20982D01*
X91219Y21345D01*
X90518Y21533D01*
X90217D01*
X90065Y22033D01*
X90288Y22182D01*
X135755Y67648D01*
X135780Y67638D01*
X136720D01*
X137588Y67997D01*
X138253Y68662D01*
X138612Y69530D01*
Y70470D01*
X138253Y71338D01*
X137588Y72003D01*
X136720Y72362D01*
D02*
G37*
G36*
X170242Y68435D02*
X169221D01*
X168235Y68170D01*
X167350Y67660D01*
X166629Y66938D01*
X166118Y66053D01*
X165854Y65067D01*
Y64046D01*
X166118Y63060D01*
X166629Y62176D01*
X167350Y61453D01*
X168235Y60943D01*
X169221Y60679D01*
X170242D01*
X171228Y60943D01*
X172113Y61453D01*
X172835Y62176D01*
X173345Y63060D01*
X173610Y64046D01*
Y65067D01*
X173345Y66053D01*
X172835Y66938D01*
X172113Y67660D01*
X171228Y68170D01*
X170242Y68435D01*
D02*
G37*
G36*
X191976Y66930D02*
X185976D01*
X184987Y66800D01*
X184066Y66418D01*
X183275Y65811D01*
X182668Y65020D01*
X182286Y64099D01*
X182156Y63110D01*
X182286Y62121D01*
X182668Y61200D01*
X183275Y60409D01*
X184066Y59802D01*
X184987Y59420D01*
X185976Y59290D01*
X191976D01*
X192965Y59420D01*
X193886Y59802D01*
X194677Y60409D01*
X195284Y61200D01*
X195666Y62121D01*
X195796Y63110D01*
X195666Y64099D01*
X195284Y65020D01*
X194677Y65811D01*
X193886Y66418D01*
X192965Y66800D01*
X191976Y66930D01*
D02*
G37*
G36*
X146720Y67362D02*
X145780D01*
X144912Y67003D01*
X144247Y66338D01*
X143888Y65470D01*
Y64530D01*
X144173Y63842D01*
Y51158D01*
X143888Y50470D01*
Y49530D01*
X144247Y48662D01*
X144912Y47997D01*
X145780Y47638D01*
X146720D01*
X147588Y47997D01*
X148253Y48662D01*
X148612Y49530D01*
Y50470D01*
X148327Y51158D01*
Y63842D01*
X148612Y64530D01*
Y65470D01*
X148253Y66338D01*
X147588Y67003D01*
X146720Y67362D01*
D02*
G37*
G36*
X135511Y55128D02*
X134490D01*
X133503Y54864D01*
X132619Y54353D01*
X131897Y53631D01*
X131386Y52747D01*
X131122Y51761D01*
Y50740D01*
X131386Y49753D01*
X131897Y48869D01*
X132619Y48147D01*
X133503Y47636D01*
X134490Y47372D01*
X135511D01*
X136497Y47636D01*
X137381Y48147D01*
X138103Y48869D01*
X138614Y49753D01*
X138878Y50740D01*
Y51761D01*
X138614Y52747D01*
X138103Y53631D01*
X137381Y54353D01*
X136497Y54864D01*
X135511Y55128D01*
D02*
G37*
G36*
X191976Y46930D02*
X185976D01*
X184987Y46800D01*
X184066Y46418D01*
X183275Y45811D01*
X182668Y45020D01*
X182286Y44099D01*
X182156Y43110D01*
X182286Y42121D01*
X182668Y41200D01*
X183275Y40409D01*
X184066Y39802D01*
X184987Y39420D01*
X185976Y39290D01*
X191976D01*
X192965Y39420D01*
X193886Y39802D01*
X194677Y40409D01*
X195284Y41200D01*
X195666Y42121D01*
X195796Y43110D01*
X195666Y44099D01*
X195284Y45020D01*
X194677Y45811D01*
X193886Y46418D01*
X192965Y46800D01*
X191976Y46930D01*
D02*
G37*
G36*
X136000Y41985D02*
Y38500D01*
X139485D01*
X139278Y39272D01*
X138673Y40319D01*
X137819Y41173D01*
X136772Y41778D01*
X136000Y41985D01*
D02*
G37*
G36*
X134000D02*
X133228Y41778D01*
X132181Y41173D01*
X131327Y40319D01*
X130722Y39272D01*
X130516Y38500D01*
X134000D01*
Y41985D01*
D02*
G37*
G36*
X139485Y36500D02*
X136000D01*
Y33015D01*
X136772Y33222D01*
X137819Y33827D01*
X138673Y34681D01*
X139278Y35728D01*
X139485Y36500D01*
D02*
G37*
G36*
X134000D02*
X130516D01*
X130722Y35728D01*
X131327Y34681D01*
X132181Y33827D01*
X133228Y33222D01*
X134000Y33015D01*
Y36500D01*
D02*
G37*
G36*
X191976Y36930D02*
X185976D01*
X184987Y36800D01*
X184066Y36418D01*
X183275Y35811D01*
X182668Y35020D01*
X182286Y34099D01*
X182156Y33110D01*
X182286Y32121D01*
X182668Y31200D01*
X183275Y30409D01*
X184066Y29802D01*
X184987Y29420D01*
X185976Y29290D01*
X191976D01*
X192965Y29420D01*
X193886Y29802D01*
X194677Y30409D01*
X195284Y31200D01*
X195666Y32121D01*
X195796Y33110D01*
X195666Y34099D01*
X195284Y35020D01*
X194677Y35811D01*
X193886Y36418D01*
X192965Y36800D01*
X191976Y36930D01*
D02*
G37*
G36*
Y26930D02*
X185976D01*
X184987Y26800D01*
X184066Y26418D01*
X183275Y25811D01*
X182668Y25020D01*
X182286Y24099D01*
X182156Y23110D01*
X182286Y22121D01*
X182668Y21200D01*
X183275Y20409D01*
X184066Y19802D01*
X184987Y19420D01*
X185976Y19290D01*
X191976D01*
X192965Y19420D01*
X193886Y19802D01*
X194677Y20409D01*
X195284Y21200D01*
X195666Y22121D01*
X195796Y23110D01*
X195666Y24099D01*
X195284Y25020D01*
X194677Y25811D01*
X193886Y26418D01*
X192965Y26800D01*
X191976Y26930D01*
D02*
G37*
G36*
X205616Y17053D02*
X204384D01*
X204307Y17037D01*
X204228D01*
X203020Y16797D01*
X202947Y16767D01*
X202870Y16751D01*
X201732Y16280D01*
X201666Y16237D01*
X201593Y16206D01*
X200570Y15522D01*
X200514Y15466D01*
X200448Y15422D01*
X199578Y14552D01*
X199534Y14486D01*
X199478Y14430D01*
X198794Y13407D01*
X198764Y13333D01*
X198720Y13268D01*
X198249Y12130D01*
X198233Y12053D01*
X198203Y11980D01*
X197963Y10772D01*
Y10693D01*
X197947Y10616D01*
Y9384D01*
X197963Y9307D01*
Y9228D01*
X198203Y8020D01*
X198233Y7947D01*
X198249Y7870D01*
X198720Y6732D01*
X198764Y6667D01*
X198794Y6594D01*
X199478Y5570D01*
X199534Y5514D01*
X199578Y5448D01*
X200448Y4578D01*
X200514Y4534D01*
X200570Y4478D01*
X201593Y3794D01*
X201666Y3763D01*
X201732Y3720D01*
X202870Y3249D01*
X202947Y3233D01*
X203020Y3203D01*
X204228Y2963D01*
X204307D01*
X204384Y2947D01*
X205000Y2947D01*
X205616D01*
X205693Y2963D01*
X205772D01*
X206980Y3203D01*
X207053Y3233D01*
X207130Y3249D01*
X208268Y3720D01*
X208333Y3763D01*
X208406Y3794D01*
X209430Y4478D01*
X209486Y4534D01*
X209552Y4578D01*
X210422Y5448D01*
X210466Y5514D01*
X210522Y5570D01*
X211206Y6594D01*
X211237Y6667D01*
X211280Y6732D01*
X211752Y7870D01*
X211767Y7947D01*
X211797Y8020D01*
X212037Y9228D01*
Y9307D01*
X212053Y9384D01*
Y10616D01*
X212037Y10693D01*
Y10772D01*
X211797Y11980D01*
X211767Y12053D01*
X211752Y12130D01*
X211280Y13268D01*
X211237Y13333D01*
X211206Y13407D01*
X210522Y14430D01*
X210466Y14486D01*
X210422Y14552D01*
X209552Y15422D01*
X209486Y15466D01*
X209430Y15522D01*
X208406Y16206D01*
X208333Y16236D01*
X208268Y16280D01*
X207130Y16751D01*
X207053Y16767D01*
X206980Y16797D01*
X205772Y17037D01*
X205693D01*
X205616Y17053D01*
D02*
G37*
G36*
X10616D02*
X9384D01*
X9307Y17037D01*
X9228D01*
X8020Y16797D01*
X7947Y16767D01*
X7870Y16751D01*
X6732Y16280D01*
X6667Y16237D01*
X6594Y16206D01*
X5570Y15522D01*
X5514Y15466D01*
X5448Y15422D01*
X4578Y14552D01*
X4534Y14486D01*
X4478Y14430D01*
X3794Y13407D01*
X3763Y13333D01*
X3720Y13268D01*
X3249Y12130D01*
X3233Y12053D01*
X3203Y11980D01*
X2963Y10772D01*
Y10693D01*
X2947Y10616D01*
X2947Y10000D01*
Y9384D01*
X2963Y9307D01*
Y9228D01*
X3203Y8020D01*
X3233Y7947D01*
X3249Y7870D01*
X3720Y6732D01*
X3763Y6667D01*
X3794Y6594D01*
X4478Y5570D01*
X4534Y5514D01*
X4578Y5448D01*
X5448Y4578D01*
X5514Y4534D01*
X5570Y4478D01*
X6594Y3794D01*
X6667Y3763D01*
X6732Y3720D01*
X7870Y3249D01*
X7947Y3233D01*
X8020Y3203D01*
X9228Y2963D01*
X9307D01*
X9384Y2947D01*
X10000Y2947D01*
X10616D01*
X10693Y2963D01*
X10772D01*
X11980Y3203D01*
X12053Y3233D01*
X12130Y3249D01*
X13268Y3720D01*
X13333Y3763D01*
X13407Y3794D01*
X14430Y4478D01*
X14486Y4534D01*
X14552Y4578D01*
X15422Y5448D01*
X15466Y5514D01*
X15522Y5570D01*
X16206Y6594D01*
X16236Y6667D01*
X16280Y6732D01*
X16751Y7870D01*
X16767Y7947D01*
X16797Y8020D01*
X17037Y9228D01*
Y9307D01*
X17053Y9384D01*
Y10616D01*
X17037Y10693D01*
Y10772D01*
X16797Y11980D01*
X16767Y12053D01*
X16751Y12130D01*
X16280Y13268D01*
X16237Y13333D01*
X16206Y13407D01*
X15522Y14430D01*
X15466Y14486D01*
X15422Y14552D01*
X14552Y15422D01*
X14486Y15466D01*
X14430Y15522D01*
X13407Y16206D01*
X13333Y16236D01*
X13268Y16280D01*
X12130Y16751D01*
X12053Y16767D01*
X11980Y16797D01*
X10772Y17037D01*
X10693D01*
X10616Y17053D01*
D02*
G37*
%LPD*%
G36*
X179012Y122881D02*
Y112061D01*
X178512Y111961D01*
X178253Y112588D01*
X177588Y113253D01*
X177563Y113263D01*
Y117500D01*
X177463Y118002D01*
X177178Y118428D01*
X166957Y128650D01*
X166531Y128934D01*
X166029Y129034D01*
X155322D01*
X149848Y134509D01*
X149856Y134529D01*
Y135468D01*
X149683Y135888D01*
X150017Y136388D01*
X150470D01*
X151338Y136747D01*
X152003Y137412D01*
X152013Y137437D01*
X164456D01*
X179012Y122881D01*
D02*
G37*
G36*
X168888Y111324D02*
Y110780D01*
X168898Y110755D01*
X160082Y101938D01*
X126603D01*
X126363Y102178D01*
X125937Y102463D01*
X125435Y102563D01*
X119513D01*
X119503Y102588D01*
X118838Y103253D01*
X117970Y103612D01*
X117426D01*
X117218Y104112D01*
X118547Y105440D01*
X119037Y105343D01*
X119193Y104966D01*
X119858Y104302D01*
X120726Y103942D01*
X121666D01*
X122534Y104302D01*
X123198Y104966D01*
X123209Y104992D01*
X161304D01*
X161807Y105092D01*
X162232Y105376D01*
X168388Y111531D01*
X168888Y111324D01*
D02*
G37*
D16*
X92803Y173724D02*
G03*
X93998Y174220I0J1687D01*
G01*
X92803Y173724D02*
G03*
X93996Y174218I0J1687D01*
G01*
X89563Y175000D02*
G03*
X92354Y173724I1687J0D01*
G01*
X84313Y171250D02*
G03*
X84313Y171250I-3565J0D01*
G01*
X87463Y163750D02*
G03*
X82537Y163750I-2463J-1250D01*
G01*
X96250Y175000D02*
X98750Y172500D01*
X96250Y175000D02*
X98750Y172500D01*
X94778Y175000D02*
X96250D01*
X93998Y174220D02*
X94778Y175000D01*
X94239Y174461D02*
X98750Y169951D01*
X92239Y173633D02*
X98750Y167122D01*
X84248Y171929D02*
X87319Y175000D01*
X84248Y171929D02*
X87319Y175000D01*
X83265Y173775D02*
X84490Y175000D01*
X92354Y173724D02*
X92803D01*
X98750Y166250D02*
Y172500D01*
X90211Y163750D02*
X98750Y172289D01*
X88044Y175000D02*
X97772Y165272D01*
X95868Y163750D02*
X98750Y166632D01*
X96250Y163750D02*
X98750Y166250D01*
X93039Y163750D02*
X98750Y169461D01*
X85912Y165108D02*
X95804Y175000D01*
X87436Y163803D02*
X97441Y173809D01*
X85215Y175000D02*
X96358Y163858D01*
X87463Y163750D02*
X96250Y163750D01*
X87463Y163750D02*
X96250Y163750D01*
X84200Y170359D02*
X90808Y163750D01*
X81414Y174752D02*
X81662Y175000D01*
X79558D02*
X79856Y174702D01*
X76250Y172500D02*
X78750Y175000D01*
X76250Y172416D02*
X78834Y175000D01*
X78750D02*
X89563D01*
X77409Y165091D02*
X80069Y167750D01*
X77740Y173990D02*
X78096Y173634D01*
X76326Y172576D02*
X77210Y171692D01*
X76250Y166250D02*
Y172500D01*
Y169588D02*
X77245Y170583D01*
X76250Y166760D02*
X78223Y168732D01*
X76250Y166250D02*
Y172500D01*
X81726Y163750D02*
X91289Y173313D01*
X82387Y175000D02*
X93637Y163750D01*
X78897Y163750D02*
X89640Y174493D01*
X83131Y168599D02*
X87980Y163750D01*
X81190Y167712D02*
X83878Y165024D01*
X77409Y165091D02*
X80069Y167750D01*
X76250Y166995D02*
X79495Y163750D01*
X76250Y169823D02*
X82323Y163750D01*
X78750D02*
X82537D01*
X78750D02*
X82537D01*
X76250Y166250D02*
X78750Y163750D01*
D17*
X89360Y23110D02*
X136250Y70000D01*
X27559Y23110D02*
X89360D01*
X27559Y33110D02*
X91860D01*
X133750Y75000D01*
X67500Y81250D02*
X75000Y88750D01*
X67500Y71250D02*
Y81250D01*
X37500Y98859D02*
Y106250D01*
X50000Y118750D02*
X56250D01*
X37500Y106250D02*
X50000Y118750D01*
X130000Y77500D02*
X132500Y80000D01*
X120777Y77500D02*
X130000D01*
X121250Y206250D02*
X137500Y222500D01*
X121250Y183806D02*
Y206250D01*
X127500Y207060D02*
X139190Y218750D01*
X127500Y182500D02*
Y207060D01*
X31751Y93110D02*
X37500Y98859D01*
X104413Y187021D02*
Y189413D01*
X92803Y175411D02*
X104413Y187021D01*
X91661Y175411D02*
X92803D01*
X91250Y175000D02*
X91661Y175411D01*
X104413Y189413D02*
X113750Y198750D01*
X112500Y172500D02*
X112911Y172911D01*
X127911D01*
X47500Y48750D02*
X85000D01*
X27559Y43110D02*
X41860D01*
X47500Y48750D01*
X27559Y93110D02*
X31751D01*
X61250Y83750D02*
X73750Y96250D01*
X61250Y72500D02*
Y83750D01*
X83750Y72500D02*
X121250Y110000D01*
X73750Y72500D02*
X83750D01*
X95000Y88750D02*
X116250Y110000D01*
Y120000D01*
X117500Y101250D02*
X125435D01*
X126059Y100626D01*
X160626D01*
X171250Y111250D01*
X75000Y88750D02*
X95000D01*
X121250Y110000D02*
Y120000D01*
X75000Y96250D02*
X96250D01*
X73750D02*
X75000D01*
X96250D02*
X111250Y111250D01*
Y116250D01*
X121196Y106304D02*
X161304D01*
X171250Y116250D01*
X83716Y153750D02*
X113716Y123750D01*
X123750D01*
X127500Y120000D01*
X115000Y126250D02*
X125000D01*
X131175Y113750D02*
X131250Y113675D01*
X85000Y156250D02*
X115000Y126250D01*
X125000D02*
X131250Y120000D01*
X67609Y153750D02*
X83716D01*
X127500Y111250D02*
Y120000D01*
X72500Y156250D02*
X85000D01*
X131250Y113675D02*
Y120000D01*
X112500Y133750D02*
X125000D01*
X85000Y48750D02*
X122500Y86250D01*
X82500Y52500D02*
X104589Y74589D01*
X28169Y52500D02*
X82500D01*
X27559Y53110D02*
X28169Y52500D01*
X27559Y63110D02*
X34419Y56250D01*
X80000D02*
X107500Y83750D01*
X34419Y56250D02*
X80000D01*
X70111Y158639D02*
X72500Y156250D01*
X70111Y158639D02*
Y220404D01*
X68514Y222001D02*
X70111Y220404D01*
X68514Y222001D02*
Y223986D01*
X67500Y225000D02*
X68514Y223986D01*
X61250Y160109D02*
X67609Y153750D01*
X73750Y112500D02*
Y150000D01*
X61250Y160109D02*
Y221250D01*
X73750Y112500D02*
X80000Y106250D01*
X185070Y153110D02*
X188976D01*
X181929Y156250D02*
X185070Y153110D01*
X152500Y156250D02*
X181929D01*
X140168Y156082D02*
X148750Y147500D01*
X181250D01*
X185640Y143110D01*
X150000Y138750D02*
X165000D01*
X180325Y108425D02*
Y123425D01*
X165000Y138750D02*
X180325Y123425D01*
X104589Y74589D02*
X105839D01*
X106250Y75000D01*
X102500Y161250D02*
X107500D01*
X142500Y126250D01*
Y112500D02*
Y126250D01*
X137500Y222500D02*
X179586D01*
X176250Y111250D02*
Y117500D01*
X166029Y127721D02*
X176250Y117500D01*
X154779Y127721D02*
X166029D01*
X185640Y103110D02*
X188976D01*
X180325Y108425D02*
X185640Y103110D01*
X140000Y156082D02*
X140168D01*
X68750Y100000D02*
Y125000D01*
X147501Y134999D02*
X154779Y127721D01*
X147494Y134999D02*
X147501D01*
X140000Y110000D02*
X142500Y112500D01*
X139190Y218750D02*
X168750D01*
X184623Y203110D02*
X188976D01*
X183234Y204499D02*
X184623Y203110D01*
X183001Y204499D02*
X183234D01*
X168750Y218750D02*
X183001Y204499D01*
X179586Y222500D02*
X188976Y213110D01*
X127911Y172911D02*
X128750Y173750D01*
X57500Y225000D02*
X61250Y221250D01*
X185640Y143110D02*
X188976D01*
X185976Y123110D02*
X188976D01*
D41*
X156250Y74783D02*
D03*
Y85217D02*
D03*
D57*
X113750Y198750D02*
D03*
X128750Y173750D02*
D03*
X169732Y64557D02*
D03*
X120777Y77500D02*
D03*
X135000Y51250D02*
D03*
Y37500D02*
D03*
D67*
X101250Y177500D02*
X103750Y180000D01*
X96250Y160000D02*
X101250Y165000D01*
Y177500D01*
X80316Y200818D02*
X80747Y201250D01*
X96250D01*
Y160000D02*
X102376Y153874D01*
X87500Y102500D02*
Y123294D01*
X96250Y210000D02*
X106773Y220523D01*
X96250Y201250D02*
Y210000D01*
X102376Y153874D02*
X107376D01*
X107500Y153750D01*
X170640Y53110D02*
X188976D01*
X160520Y63230D02*
Y72779D01*
Y63230D02*
X170640Y53110D01*
X156250Y74783D02*
X158517D01*
X160520Y72779D01*
X156250Y92500D02*
X164824D01*
X146250D02*
X156250D01*
Y85217D02*
Y92500D01*
X146250Y50000D02*
Y65000D01*
X85000Y125794D02*
X87500Y123294D01*
X164824Y92500D02*
X166506Y94182D01*
X166682D01*
X106773Y224273D02*
X107500Y225000D01*
X106773Y220523D02*
Y224273D01*
X85000Y125794D02*
Y147500D01*
D69*
X90156Y18777D02*
D03*
X58755D02*
D03*
D70*
X161092Y208750D02*
D03*
X141408D02*
D03*
D71*
X188976Y213110D02*
D03*
Y203110D02*
D03*
Y193110D02*
D03*
Y183110D02*
D03*
Y173110D02*
D03*
Y163110D02*
D03*
Y153110D02*
D03*
Y143110D02*
D03*
Y133110D02*
D03*
Y123110D02*
D03*
Y113110D02*
D03*
Y103110D02*
D03*
Y93110D02*
D03*
Y83110D02*
D03*
Y73110D02*
D03*
Y63110D02*
D03*
Y53110D02*
D03*
Y43110D02*
D03*
Y33110D02*
D03*
Y23110D02*
D03*
X27559Y213110D02*
D03*
Y203110D02*
D03*
Y193110D02*
D03*
Y183110D02*
D03*
Y173110D02*
D03*
Y163110D02*
D03*
Y153110D02*
D03*
Y143110D02*
D03*
Y133110D02*
D03*
Y123110D02*
D03*
Y113110D02*
D03*
Y103110D02*
D03*
Y93110D02*
D03*
Y83110D02*
D03*
Y73110D02*
D03*
Y63110D02*
D03*
Y53110D02*
D03*
Y43110D02*
D03*
Y33110D02*
D03*
Y23110D02*
D03*
D72*
X50747Y201250D02*
D03*
D73*
Y171250D02*
D03*
X80747D02*
D03*
Y201250D02*
D03*
D74*
X87500Y225000D02*
D03*
X67500D02*
D03*
X77500D02*
D03*
X97500D02*
D03*
X107500D02*
D03*
D75*
X57500D02*
D03*
D76*
X10000D02*
D03*
X205000D02*
D03*
Y10000D02*
D03*
X10000D02*
D03*
D77*
X136250Y125000D02*
D03*
X119571Y130209D02*
D03*
X100000Y52500D02*
D03*
X133750Y75000D02*
D03*
X142054Y78395D02*
D03*
X136250Y70000D02*
D03*
X116817Y190140D02*
D03*
X38750Y61250D02*
D03*
X61250Y128750D02*
D03*
X115000Y158750D02*
D03*
X65000Y67500D02*
D03*
X67500Y71250D02*
D03*
X132500Y80000D02*
D03*
X121250Y183750D02*
D03*
X130075Y192500D02*
D03*
X127500Y182500D02*
D03*
X79414Y75433D02*
D03*
X83750Y66250D02*
D03*
X57500Y70000D02*
D03*
X56250Y118750D02*
D03*
X41250Y102500D02*
D03*
X54135Y104386D02*
D03*
X210000Y232500D02*
D03*
Y212500D02*
D03*
X200000Y232500D02*
D03*
Y192500D02*
D03*
X205000Y182500D02*
D03*
X200000Y172500D02*
D03*
X205000Y162500D02*
D03*
X200000Y152500D02*
D03*
X205000Y142500D02*
D03*
X200000Y132500D02*
D03*
X205000Y122500D02*
D03*
X200000Y112500D02*
D03*
X205000Y102500D02*
D03*
X200000Y92500D02*
D03*
X205000Y82500D02*
D03*
X200000Y72500D02*
D03*
X205000Y62500D02*
D03*
X200000Y52500D02*
D03*
X205000Y42500D02*
D03*
X200000Y32500D02*
D03*
X190000Y232500D02*
D03*
Y12500D02*
D03*
X180000Y232500D02*
D03*
Y212500D02*
D03*
Y192500D02*
D03*
Y152500D02*
D03*
Y132500D02*
D03*
Y72500D02*
D03*
Y12500D02*
D03*
X170000Y232500D02*
D03*
X175000Y202500D02*
D03*
X170000Y12500D02*
D03*
X160000Y232500D02*
D03*
Y192500D02*
D03*
Y12500D02*
D03*
X150000Y232500D02*
D03*
Y212500D02*
D03*
X155000Y202500D02*
D03*
Y62500D02*
D03*
Y42500D02*
D03*
Y22500D02*
D03*
X150000Y12500D02*
D03*
X140000Y232500D02*
D03*
Y192500D02*
D03*
X145000Y182500D02*
D03*
X140000Y32500D02*
D03*
X145000Y22500D02*
D03*
X140000Y12500D02*
D03*
X130000Y232500D02*
D03*
X135000Y202500D02*
D03*
Y182500D02*
D03*
X130000Y32500D02*
D03*
X135000Y22500D02*
D03*
X130000Y12500D02*
D03*
X120000Y232500D02*
D03*
X125000Y222500D02*
D03*
X120000Y212500D02*
D03*
X125000Y162500D02*
D03*
Y82500D02*
D03*
Y42500D02*
D03*
X120000Y32500D02*
D03*
X125000Y22500D02*
D03*
X120000Y12500D02*
D03*
X110000Y232500D02*
D03*
X115000Y222500D02*
D03*
Y62500D02*
D03*
Y42500D02*
D03*
X110000Y32500D02*
D03*
X115000Y22500D02*
D03*
X100000Y232500D02*
D03*
X105000Y202500D02*
D03*
X100000Y12500D02*
D03*
X90000Y232500D02*
D03*
Y212500D02*
D03*
Y192500D02*
D03*
X95000Y182500D02*
D03*
Y42500D02*
D03*
Y22500D02*
D03*
X90000Y12500D02*
D03*
X80000Y232500D02*
D03*
Y212500D02*
D03*
Y192500D02*
D03*
X85000Y182500D02*
D03*
Y162500D02*
D03*
X80000Y132500D02*
D03*
Y92500D02*
D03*
Y12500D02*
D03*
X70000Y232500D02*
D03*
Y132500D02*
D03*
Y12500D02*
D03*
X60000Y232500D02*
D03*
X65000Y202500D02*
D03*
Y182500D02*
D03*
Y162500D02*
D03*
X60000Y152500D02*
D03*
X65000Y102500D02*
D03*
X60000Y12500D02*
D03*
X50000Y232500D02*
D03*
Y212500D02*
D03*
Y192500D02*
D03*
X55000Y182500D02*
D03*
Y162500D02*
D03*
X50000Y152500D02*
D03*
Y132500D02*
D03*
Y112500D02*
D03*
X40000Y232500D02*
D03*
X45000Y222500D02*
D03*
X40000Y212500D02*
D03*
X45000Y202500D02*
D03*
X40000Y192500D02*
D03*
X45000Y182500D02*
D03*
X40000Y172500D02*
D03*
X45000Y162500D02*
D03*
X40000Y152500D02*
D03*
X45000Y142500D02*
D03*
X40000Y132500D02*
D03*
X45000Y82500D02*
D03*
X40000Y12500D02*
D03*
X30000Y232500D02*
D03*
X35000Y222500D02*
D03*
X30000Y12500D02*
D03*
X20000Y232500D02*
D03*
X25000Y222500D02*
D03*
X20000Y12500D02*
D03*
X10000Y212500D02*
D03*
X15000Y202500D02*
D03*
X10000Y192500D02*
D03*
X15000Y182500D02*
D03*
X10000Y172500D02*
D03*
X15000Y162500D02*
D03*
X10000Y152500D02*
D03*
X15000Y142500D02*
D03*
X10000Y132500D02*
D03*
X15000Y122500D02*
D03*
X10000Y112500D02*
D03*
X15000Y102500D02*
D03*
X10000Y92500D02*
D03*
X15000Y82500D02*
D03*
X10000Y72500D02*
D03*
X15000Y62500D02*
D03*
X10000Y52500D02*
D03*
X15000Y42500D02*
D03*
X10000Y32500D02*
D03*
X15000Y22500D02*
D03*
X103750Y180000D02*
D03*
X112500Y172500D02*
D03*
X91250Y175000D02*
D03*
X61250Y72500D02*
D03*
X73750D02*
D03*
X111250Y116250D02*
D03*
X121196Y106304D02*
D03*
X87500Y102500D02*
D03*
X116250Y120000D02*
D03*
X121250D02*
D03*
X127500Y111250D02*
D03*
X112500Y66250D02*
D03*
X131250Y113675D02*
D03*
X61250Y96250D02*
D03*
X68750Y100000D02*
D03*
X158750Y143750D02*
D03*
X167500D02*
D03*
X171250Y137500D02*
D03*
X172102Y125373D02*
D03*
X73750Y150000D02*
D03*
X152500Y156250D02*
D03*
X102500Y161250D02*
D03*
X96250Y160000D02*
D03*
X106250Y75000D02*
D03*
X107500Y83750D02*
D03*
X145000Y142588D02*
D03*
X171250Y116250D02*
D03*
Y111250D02*
D03*
X176250D02*
D03*
X140000Y156082D02*
D03*
X68750Y125000D02*
D03*
X147494Y134999D02*
D03*
X150000Y138750D02*
D03*
X125000Y133750D02*
D03*
X140000Y110000D02*
D03*
X117500Y101250D02*
D03*
X132346Y103200D02*
D03*
X161469Y130296D02*
D03*
X92500Y48750D02*
D03*
X156108Y66462D02*
D03*
X154730Y109857D02*
D03*
X80000Y106250D02*
D03*
X146250Y65000D02*
D03*
Y50000D02*
D03*
X166682Y94182D02*
D03*
X112500Y133750D02*
D03*
X146250Y92500D02*
D03*
X122500Y86250D02*
D03*
X85000Y147500D02*
D03*
X107500Y153750D02*
D03*
M02*
