G04*
G04 #@! TF.GenerationSoftware,Altium Limited,Altium Designer,23.2.1 (34)*
G04*
G04 Layer_Color=32896*
%FSLAX25Y25*%
%MOIN*%
G70*
G04*
G04 #@! TF.SameCoordinates,B2F2E879-4ADF-417A-83DA-379EB80E5566*
G04*
G04*
G04 #@! TF.FilePolarity,Positive*
G04*
G01*
G75*
%ADD11C,0.00787*%
%ADD17C,0.01000*%
D11*
X150730Y79217D02*
Y80783D01*
X161770Y79217D02*
Y80783D01*
D17*
X176500Y25145D02*
Y21813D01*
X175833Y21146D01*
X174501D01*
X173834Y21813D01*
Y25145D01*
X172501D02*
Y21146D01*
X170502D01*
X169835Y21813D01*
Y22479D01*
X170502Y23146D01*
X172501D01*
X170502D01*
X169835Y23812D01*
Y24478D01*
X170502Y25145D01*
X172501D01*
X165837Y24478D02*
X166503Y25145D01*
X167836D01*
X168503Y24478D01*
Y21813D01*
X167836Y21146D01*
X166503D01*
X165837Y21813D01*
X160505Y21146D02*
Y25145D01*
X158506D01*
X157839Y24478D01*
Y23146D01*
X158506Y22479D01*
X160505D01*
X159172D02*
X157839Y21146D01*
X155840D02*
X154507D01*
X153841Y21813D01*
Y23146D01*
X154507Y23812D01*
X155840D01*
X156506Y23146D01*
Y21813D01*
X155840Y21146D01*
X149842Y23812D02*
X151841D01*
X152508Y23146D01*
Y21813D01*
X151841Y21146D01*
X149842D01*
X148509D02*
Y25145D01*
Y22479D02*
X146510Y23812D01*
X148509Y22479D02*
X146510Y21146D01*
X142511D02*
X143844D01*
X144510Y21813D01*
Y23146D01*
X143844Y23812D01*
X142511D01*
X141844Y23146D01*
Y22479D01*
X144510D01*
X139845Y24478D02*
Y23812D01*
X140512D01*
X139179D01*
X139845D01*
Y21813D01*
X139179Y21146D01*
X133181D02*
Y23812D01*
X131848Y25145D01*
X130515Y23812D01*
Y21146D01*
Y23146D01*
X133181D01*
X129182Y23812D02*
X127849Y21146D01*
X126516Y23812D01*
X125183Y21146D02*
X123850D01*
X124517D01*
Y23812D01*
X125183D01*
X121185Y21146D02*
X119852D01*
X119185Y21813D01*
Y23146D01*
X119852Y23812D01*
X121185D01*
X121851Y23146D01*
Y21813D01*
X121185Y21146D01*
X117852D02*
Y23812D01*
X115853D01*
X115186Y23146D01*
Y21146D01*
X113854D02*
X112521D01*
X113187D01*
Y23812D01*
X113854D01*
X107855D02*
X109855D01*
X110521Y23146D01*
Y21813D01*
X109855Y21146D01*
X107855D01*
X106523D02*
X104523D01*
X103857Y21813D01*
X104523Y22479D01*
X105856D01*
X106523Y23146D01*
X105856Y23812D01*
X103857D01*
X176500Y13948D02*
Y17946D01*
X175167Y16614D01*
X173834Y17946D01*
Y13948D01*
X169835Y17280D02*
X170502Y17946D01*
X171835D01*
X172501Y17280D01*
Y14614D01*
X171835Y13948D01*
X170502D01*
X169835Y14614D01*
X168503Y17946D02*
Y14614D01*
X167836Y13948D01*
X166503D01*
X165837Y14614D01*
Y17946D01*
X160505Y13948D02*
Y16614D01*
X159839D01*
X159172Y15947D01*
Y13948D01*
Y15947D01*
X158506Y16614D01*
X157839Y15947D01*
Y13948D01*
X155840D02*
X154507D01*
X153841Y14614D01*
Y15947D01*
X154507Y16614D01*
X155840D01*
X156506Y15947D01*
Y14614D01*
X155840Y13948D01*
X149842Y17946D02*
Y13948D01*
X151841D01*
X152508Y14614D01*
Y15947D01*
X151841Y16614D01*
X149842D01*
X148509D02*
Y14614D01*
X147843Y13948D01*
X145843D01*
Y16614D01*
X144510Y13948D02*
X143177D01*
X143844D01*
Y17946D01*
X144510D01*
X139179Y13948D02*
X140512D01*
X141178Y14614D01*
Y15947D01*
X140512Y16614D01*
X139179D01*
X138512Y15947D01*
Y15281D01*
X141178D01*
X133181Y16614D02*
Y13948D01*
Y15281D01*
X132514Y15947D01*
X131848Y16614D01*
X131181D01*
X127183Y13948D02*
X128516D01*
X129182Y14614D01*
Y15947D01*
X128516Y16614D01*
X127183D01*
X126516Y15947D01*
Y15281D01*
X129182D01*
X125183Y16614D02*
X123850Y13948D01*
X122517Y16614D01*
X114520Y13948D02*
X117186D01*
X114520Y16614D01*
Y17280D01*
X115186Y17946D01*
X116519D01*
X117186Y17280D01*
X173834Y9415D02*
X174501Y10082D01*
X175833D01*
X176500Y9415D01*
Y6749D01*
X175833Y6083D01*
X174501D01*
X173834Y6749D01*
X171835Y8749D02*
X170502D01*
X169835Y8082D01*
Y6083D01*
X171835D01*
X172501Y6749D01*
X171835Y7416D01*
X169835D01*
X168503Y6083D02*
X167170D01*
X167836D01*
Y10082D01*
X168503D01*
X165170Y6083D02*
X163837D01*
X164504D01*
Y10082D01*
X165170D01*
X161838Y8749D02*
Y6749D01*
X161172Y6083D01*
X159172D01*
Y8749D01*
X157839Y6083D02*
Y8749D01*
X157173D01*
X156506Y8082D01*
Y6083D01*
Y8082D01*
X155840Y8749D01*
X155174Y8082D01*
Y6083D01*
X147843Y10082D02*
X149176D01*
X149842Y9415D01*
Y6749D01*
X149176Y6083D01*
X147843D01*
X147176Y6749D01*
Y9415D01*
X147843Y10082D01*
X145177Y10748D02*
Y9415D01*
X145843Y8749D01*
X143177Y6083D02*
Y10082D01*
X141178D01*
X140512Y9415D01*
Y8082D01*
X141178Y7416D01*
X143177D01*
X141844D02*
X140512Y6083D01*
X139179D02*
X137846D01*
X138512D01*
Y8749D01*
X139179D01*
X135846Y6083D02*
X134514D01*
X135180D01*
Y10082D01*
X135846D01*
X130515Y6083D02*
X131848D01*
X132514Y6749D01*
Y8082D01*
X131848Y8749D01*
X130515D01*
X129848Y8082D01*
Y7416D01*
X132514D01*
X128516Y8749D02*
Y6749D01*
X127849Y6083D01*
X125850D01*
Y5416D01*
X126516Y4750D01*
X127183D01*
X125850Y6083D02*
Y8749D01*
X123850Y5416D02*
X123184Y6083D01*
Y6749D01*
X123850D01*
Y6083D01*
X123184D01*
X123850Y5416D01*
X124517Y4750D01*
X113854Y6083D02*
X116519D01*
X113854Y8749D01*
Y9415D01*
X114520Y10082D01*
X115853D01*
X116519Y9415D01*
X112521D02*
X111854Y10082D01*
X110521D01*
X109855Y9415D01*
Y6749D01*
X110521Y6083D01*
X111854D01*
X112521Y6749D01*
Y9415D01*
X105856Y6083D02*
X108522D01*
X105856Y8749D01*
Y9415D01*
X106523Y10082D01*
X107855D01*
X108522Y9415D01*
X102524Y6083D02*
Y10082D01*
X104523Y8082D01*
X101857D01*
X159434Y96132D02*
X160101Y96799D01*
X161433D01*
X162100Y96132D01*
Y93466D01*
X161433Y92800D01*
X160101D01*
X159434Y93466D01*
X158101Y92800D02*
X156768D01*
X157435D01*
Y96799D01*
X158101Y96132D01*
X152103Y92800D02*
X154769D01*
X152103Y95466D01*
Y96132D01*
X152770Y96799D01*
X154103D01*
X154769Y96132D01*
M02*
