G04*
G04 #@! TF.GenerationSoftware,Altium Limited,Altium Designer,23.2.1 (34)*
G04*
G04 Layer_Color=8388736*
%FSLAX25Y25*%
%MOIN*%
G70*
G04*
G04 #@! TF.SameCoordinates,B2F2E879-4ADF-417A-83DA-379EB80E5566*
G04*
G04*
G04 #@! TF.FilePolarity,Negative*
G04*
G01*
G75*
%ADD23R,0.03985X0.04560*%
%ADD24R,0.03543X0.03150*%
%ADD28R,0.03150X0.03543*%
%ADD29R,0.03150X0.03150*%
%ADD32R,0.05709X0.03740*%
%ADD33R,0.02756X0.02559*%
%ADD34R,0.02410X0.06911*%
G04:AMPARAMS|DCode=35|XSize=69.11mil|YSize=24.1mil|CornerRadius=12.05mil|HoleSize=0mil|Usage=FLASHONLY|Rotation=90.000|XOffset=0mil|YOffset=0mil|HoleType=Round|Shape=RoundedRectangle|*
%AMROUNDEDRECTD35*
21,1,0.06911,0.00000,0,0,90.0*
21,1,0.04501,0.02410,0,0,90.0*
1,1,0.02410,0.00000,0.02251*
1,1,0.02410,0.00000,-0.02251*
1,1,0.02410,0.00000,-0.02251*
1,1,0.02410,0.00000,0.02251*
%
%ADD35ROUNDEDRECTD35*%
%ADD36R,0.04724X0.03543*%
%ADD39R,0.06506X0.11040*%
%ADD41R,0.11040X0.06506*%
%ADD42R,0.04934X0.06312*%
%ADD43R,0.08100X0.07300*%
%ADD44R,0.06500X0.10400*%
%ADD45R,0.06500X0.07300*%
%ADD46R,0.03556X0.05918*%
G04:AMPARAMS|DCode=47|XSize=43.43mil|YSize=32.02mil|CornerRadius=10mil|HoleSize=0mil|Usage=FLASHONLY|Rotation=90.000|XOffset=0mil|YOffset=0mil|HoleType=Round|Shape=RoundedRectangle|*
%AMROUNDEDRECTD47*
21,1,0.04343,0.01201,0,0,90.0*
21,1,0.02343,0.03202,0,0,90.0*
1,1,0.02001,0.00600,0.01171*
1,1,0.02001,0.00600,-0.01171*
1,1,0.02001,-0.00600,-0.01171*
1,1,0.02001,-0.00600,0.01171*
%
%ADD47ROUNDEDRECTD47*%
G04:AMPARAMS|DCode=48|XSize=43.43mil|YSize=28.87mil|CornerRadius=9.22mil|HoleSize=0mil|Usage=FLASHONLY|Rotation=90.000|XOffset=0mil|YOffset=0mil|HoleType=Round|Shape=RoundedRectangle|*
%AMROUNDEDRECTD48*
21,1,0.04343,0.01043,0,0,90.0*
21,1,0.02500,0.02887,0,0,90.0*
1,1,0.01843,0.00522,0.01250*
1,1,0.01843,0.00522,-0.01250*
1,1,0.01843,-0.00522,-0.01250*
1,1,0.01843,-0.00522,0.01250*
%
%ADD48ROUNDEDRECTD48*%
G04:AMPARAMS|DCode=49|XSize=29.65mil|YSize=39.5mil|CornerRadius=5.95mil|HoleSize=0mil|Usage=FLASHONLY|Rotation=90.000|XOffset=0mil|YOffset=0mil|HoleType=Round|Shape=RoundedRectangle|*
%AMROUNDEDRECTD49*
21,1,0.02965,0.02760,0,0,90.0*
21,1,0.01776,0.03950,0,0,90.0*
1,1,0.01190,0.01380,0.00888*
1,1,0.01190,0.01380,-0.00888*
1,1,0.01190,-0.01380,-0.00888*
1,1,0.01190,-0.01380,0.00888*
%
%ADD49ROUNDEDRECTD49*%
%ADD50R,0.04343X0.03950*%
%ADD51R,0.04737X0.05131*%
%ADD52R,0.06902X0.05721*%
%ADD53O,0.01981X0.07099*%
%ADD54O,0.07099X0.01981*%
%ADD55R,0.06509X0.05524*%
%ADD56C,0.04737*%
%ADD57C,0.06181*%
%ADD58C,0.05839*%
%ADD59O,0.12800X0.06800*%
%ADD60R,0.05556X0.05556*%
%ADD61C,0.05556*%
%ADD62C,0.07099*%
%ADD63R,0.07099X0.07099*%
%ADD64C,0.13300*%
%ADD65C,0.03950*%
%ADD66C,0.03740*%
D23*
X98750Y187238D02*
D03*
Y193750D02*
D03*
X157500Y119186D02*
D03*
Y125698D02*
D03*
D24*
X110000Y188885D02*
D03*
Y182979D02*
D03*
X166250Y119489D02*
D03*
Y125395D02*
D03*
Y137953D02*
D03*
Y132047D02*
D03*
X156250Y105395D02*
D03*
Y99489D02*
D03*
X93750Y105395D02*
D03*
Y99489D02*
D03*
D28*
X102953Y207500D02*
D03*
X97047D02*
D03*
X112953Y147500D02*
D03*
X107047D02*
D03*
X140453D02*
D03*
X134547D02*
D03*
X139547Y85769D02*
D03*
X145453D02*
D03*
X94203Y87500D02*
D03*
X88297D02*
D03*
D29*
X55000Y135000D02*
D03*
X60905D02*
D03*
D32*
X140000Y168356D02*
D03*
Y176033D02*
D03*
D33*
X146250Y38592D02*
D03*
Y43907D02*
D03*
X157500Y134784D02*
D03*
Y140099D02*
D03*
D34*
X169320Y77549D02*
D03*
D35*
X173060D02*
D03*
X176800D02*
D03*
Y86804D02*
D03*
X169320D02*
D03*
D36*
X121250Y67884D02*
D03*
Y59616D02*
D03*
D39*
X98750Y76250D02*
D03*
X88315D02*
D03*
D41*
X156250Y74443D02*
D03*
Y84878D02*
D03*
D42*
X62490Y145000D02*
D03*
X55010D02*
D03*
D43*
X106255Y57874D02*
D03*
D44*
X109307Y19685D02*
D03*
X47004D02*
D03*
D45*
Y57874D02*
D03*
D46*
X52589Y60921D02*
D03*
X56919D02*
D03*
X61250D02*
D03*
X65581D02*
D03*
X69911D02*
D03*
X74242D02*
D03*
X78573D02*
D03*
X82903D02*
D03*
X87234D02*
D03*
D47*
X70232Y80000D02*
D03*
X79996D02*
D03*
Y86968D02*
D03*
X70232D02*
D03*
X53986Y80000D02*
D03*
X63750D02*
D03*
Y86968D02*
D03*
X53986D02*
D03*
D48*
X73539Y80000D02*
D03*
X76689D02*
D03*
Y86968D02*
D03*
X73539D02*
D03*
X57293Y80000D02*
D03*
X60443D02*
D03*
Y86968D02*
D03*
X57293D02*
D03*
D49*
X96230Y174990D02*
D03*
Y171250D02*
D03*
Y167510D02*
D03*
X106270D02*
D03*
Y171250D02*
D03*
Y174990D02*
D03*
D50*
X149813Y177490D02*
D03*
Y170010D02*
D03*
X157687Y173750D02*
D03*
D51*
X161250Y41693D02*
D03*
Y35000D02*
D03*
D52*
X170000D02*
D03*
Y43071D02*
D03*
D53*
X125984Y139321D02*
D03*
X124016D02*
D03*
X122047D02*
D03*
X120079D02*
D03*
X118110D02*
D03*
X139764D02*
D03*
X137795D02*
D03*
X135827D02*
D03*
X133858D02*
D03*
X131890D02*
D03*
X129921D02*
D03*
X127953D02*
D03*
X116142D02*
D03*
X114173D02*
D03*
X112205D02*
D03*
X110236D02*
D03*
Y93652D02*
D03*
X112205D02*
D03*
X114173D02*
D03*
X116142D02*
D03*
X118110D02*
D03*
X120079D02*
D03*
X122047D02*
D03*
X124016D02*
D03*
X125984D02*
D03*
X127953D02*
D03*
X129921D02*
D03*
X131890D02*
D03*
X133858D02*
D03*
X135827D02*
D03*
X137795D02*
D03*
X139764D02*
D03*
D54*
X147835Y101722D02*
D03*
Y103691D02*
D03*
Y105659D02*
D03*
Y107628D02*
D03*
Y109597D02*
D03*
Y111565D02*
D03*
Y113533D02*
D03*
Y115502D02*
D03*
Y117471D02*
D03*
Y119439D02*
D03*
Y121407D02*
D03*
Y123376D02*
D03*
Y125345D02*
D03*
Y127313D02*
D03*
Y129281D02*
D03*
Y131250D02*
D03*
X102165D02*
D03*
Y129281D02*
D03*
Y127313D02*
D03*
Y125345D02*
D03*
Y123376D02*
D03*
Y121407D02*
D03*
Y119439D02*
D03*
Y117471D02*
D03*
Y115502D02*
D03*
Y113533D02*
D03*
Y111565D02*
D03*
Y109597D02*
D03*
Y107628D02*
D03*
Y105659D02*
D03*
Y103691D02*
D03*
Y101722D02*
D03*
D55*
X167500Y178721D02*
D03*
Y170847D02*
D03*
D56*
X90156Y18777D02*
D03*
X58755D02*
D03*
D57*
X113750Y198750D02*
D03*
X128750Y173750D02*
D03*
X169732Y64557D02*
D03*
X120777Y77500D02*
D03*
X135000Y51250D02*
D03*
Y37500D02*
D03*
D58*
X161092Y208750D02*
D03*
X141408D02*
D03*
D59*
X188976Y213110D02*
D03*
Y203110D02*
D03*
Y193110D02*
D03*
Y183110D02*
D03*
Y173110D02*
D03*
Y163110D02*
D03*
Y153110D02*
D03*
Y143110D02*
D03*
Y133110D02*
D03*
Y123110D02*
D03*
Y113110D02*
D03*
Y103110D02*
D03*
Y93110D02*
D03*
Y83110D02*
D03*
Y73110D02*
D03*
Y63110D02*
D03*
Y53110D02*
D03*
Y43110D02*
D03*
Y33110D02*
D03*
Y23110D02*
D03*
X27559Y213110D02*
D03*
Y203110D02*
D03*
Y193110D02*
D03*
Y183110D02*
D03*
Y173110D02*
D03*
Y163110D02*
D03*
Y153110D02*
D03*
Y143110D02*
D03*
Y133110D02*
D03*
Y123110D02*
D03*
Y113110D02*
D03*
Y103110D02*
D03*
Y93110D02*
D03*
Y83110D02*
D03*
Y73110D02*
D03*
Y63110D02*
D03*
Y53110D02*
D03*
Y43110D02*
D03*
Y33110D02*
D03*
Y23110D02*
D03*
D60*
X50747Y201250D02*
D03*
D61*
Y171250D02*
D03*
X80747D02*
D03*
Y201250D02*
D03*
D62*
X87500Y225000D02*
D03*
X67500D02*
D03*
X77500D02*
D03*
X97500D02*
D03*
X107500D02*
D03*
D63*
X57500D02*
D03*
D64*
X10000D02*
D03*
X205000D02*
D03*
Y10000D02*
D03*
X10000D02*
D03*
D65*
X133750Y75000D02*
D03*
X136250Y70000D02*
D03*
X132500Y80000D02*
D03*
X121250Y183750D02*
D03*
X127500Y182500D02*
D03*
X103750Y180000D02*
D03*
X112500Y172500D02*
D03*
X87500Y102500D02*
D03*
X68750Y100000D02*
D03*
X73750Y150000D02*
D03*
X152500Y156250D02*
D03*
X102500Y161250D02*
D03*
X96250Y160000D02*
D03*
X106250Y75000D02*
D03*
X107500Y83750D02*
D03*
X145000Y142588D02*
D03*
X171250Y116250D02*
D03*
Y111250D02*
D03*
X176250D02*
D03*
X140000Y156082D02*
D03*
X68750Y125000D02*
D03*
X147494Y134999D02*
D03*
X150000Y138750D02*
D03*
X154730Y109857D02*
D03*
X80000Y106250D02*
D03*
X146250Y65000D02*
D03*
Y50000D02*
D03*
X166682Y94182D02*
D03*
X146250Y92500D02*
D03*
X122500Y86250D02*
D03*
X85000Y147500D02*
D03*
X107500Y153750D02*
D03*
D66*
X67500Y71250D02*
D03*
X61250Y72500D02*
D03*
X73750D02*
D03*
M02*
