G04*
G04 #@! TF.GenerationSoftware,Altium Limited,Altium Designer,23.2.1 (34)*
G04*
G04 Layer_Color=8421504*
%FSLAX25Y25*%
%MOIN*%
G70*
G04*
G04 #@! TF.SameCoordinates,B2F2E879-4ADF-417A-83DA-379EB80E5566*
G04*
G04*
G04 #@! TF.FilePolarity,Positive*
G04*
G01*
G75*
%ADD18R,0.04134X0.05512*%
%ADD19R,0.07300X0.06500*%
%ADD20R,0.05700X0.09600*%
%ADD21R,0.05700X0.06500*%
%ADD22R,0.02756X0.05118*%
%ADD23R,0.03985X0.04560*%
%ADD24R,0.03543X0.03150*%
G04:AMPARAMS|DCode=25|XSize=35.43mil|YSize=24.02mil|CornerRadius=6mil|HoleSize=0mil|Usage=FLASHONLY|Rotation=90.000|XOffset=0mil|YOffset=0mil|HoleType=Round|Shape=RoundedRectangle|*
%AMROUNDEDRECTD25*
21,1,0.03543,0.01201,0,0,90.0*
21,1,0.02343,0.02402,0,0,90.0*
1,1,0.01201,0.00600,0.01171*
1,1,0.01201,0.00600,-0.01171*
1,1,0.01201,-0.00600,-0.01171*
1,1,0.01201,-0.00600,0.01171*
%
%ADD25ROUNDEDRECTD25*%
G04:AMPARAMS|DCode=26|XSize=35.43mil|YSize=20.87mil|CornerRadius=5.22mil|HoleSize=0mil|Usage=FLASHONLY|Rotation=90.000|XOffset=0mil|YOffset=0mil|HoleType=Round|Shape=RoundedRectangle|*
%AMROUNDEDRECTD26*
21,1,0.03543,0.01043,0,0,90.0*
21,1,0.02500,0.02087,0,0,90.0*
1,1,0.01043,0.00522,0.01250*
1,1,0.01043,0.00522,-0.01250*
1,1,0.01043,-0.00522,-0.01250*
1,1,0.01043,-0.00522,0.01250*
%
%ADD26ROUNDEDRECTD26*%
G04:AMPARAMS|DCode=27|XSize=21.65mil|YSize=31.5mil|CornerRadius=1.95mil|HoleSize=0mil|Usage=FLASHONLY|Rotation=90.000|XOffset=0mil|YOffset=0mil|HoleType=Round|Shape=RoundedRectangle|*
%AMROUNDEDRECTD27*
21,1,0.02165,0.02760,0,0,90.0*
21,1,0.01776,0.03150,0,0,90.0*
1,1,0.00390,0.01380,0.00888*
1,1,0.00390,0.01380,-0.00888*
1,1,0.00390,-0.01380,-0.00888*
1,1,0.00390,-0.01380,0.00888*
%
%ADD27ROUNDEDRECTD27*%
%ADD28R,0.03150X0.03543*%
%ADD29R,0.03150X0.03150*%
%ADD30R,0.03937X0.04331*%
%ADD31R,0.06102X0.04921*%
%ADD32R,0.05709X0.03740*%
%ADD33R,0.02756X0.02559*%
%ADD34R,0.02410X0.06911*%
G04:AMPARAMS|DCode=35|XSize=69.11mil|YSize=24.1mil|CornerRadius=12.05mil|HoleSize=0mil|Usage=FLASHONLY|Rotation=90.000|XOffset=0mil|YOffset=0mil|HoleType=Round|Shape=RoundedRectangle|*
%AMROUNDEDRECTD35*
21,1,0.06911,0.00000,0,0,90.0*
21,1,0.04501,0.02410,0,0,90.0*
1,1,0.02410,0.00000,0.02251*
1,1,0.02410,0.00000,-0.02251*
1,1,0.02410,0.00000,-0.02251*
1,1,0.02410,0.00000,0.02251*
%
%ADD35ROUNDEDRECTD35*%
%ADD36R,0.04724X0.03543*%
%ADD37O,0.01181X0.06299*%
%ADD38O,0.06299X0.01181*%
%ADD39R,0.06506X0.11040*%
%ADD40R,0.05709X0.04724*%
%ADD41R,0.11040X0.06506*%
D18*
X62490Y145000D02*
D03*
X55010D02*
D03*
D19*
X106255Y57874D02*
D03*
D20*
X109307Y19685D02*
D03*
X47004D02*
D03*
D21*
Y57874D02*
D03*
D22*
X52589Y60921D02*
D03*
X56919D02*
D03*
X61250D02*
D03*
X65581D02*
D03*
X69911D02*
D03*
X74242D02*
D03*
X78573D02*
D03*
X82903D02*
D03*
X87234D02*
D03*
D23*
X98750Y187238D02*
D03*
Y193750D02*
D03*
X157500Y119186D02*
D03*
Y125698D02*
D03*
D24*
X110000Y188885D02*
D03*
Y182979D02*
D03*
X149813Y177490D02*
D03*
Y170010D02*
D03*
X157687Y173750D02*
D03*
X166250Y119489D02*
D03*
Y125395D02*
D03*
Y137953D02*
D03*
Y132047D02*
D03*
X156250Y105395D02*
D03*
Y99489D02*
D03*
X93750Y105395D02*
D03*
Y99489D02*
D03*
D25*
X70232Y80000D02*
D03*
X79996D02*
D03*
Y86968D02*
D03*
X70232D02*
D03*
X53986Y80000D02*
D03*
X63750D02*
D03*
Y86968D02*
D03*
X53986D02*
D03*
D26*
X73539Y80000D02*
D03*
X76689D02*
D03*
Y86968D02*
D03*
X73539D02*
D03*
X57293Y80000D02*
D03*
X60443D02*
D03*
Y86968D02*
D03*
X57293D02*
D03*
D27*
X96230Y174990D02*
D03*
Y171250D02*
D03*
Y167510D02*
D03*
X106270D02*
D03*
Y171250D02*
D03*
Y174990D02*
D03*
D28*
X102953Y207500D02*
D03*
X97047D02*
D03*
X112953Y147500D02*
D03*
X107047D02*
D03*
X140453D02*
D03*
X134547D02*
D03*
X139547Y85769D02*
D03*
X145453D02*
D03*
X94203Y87500D02*
D03*
X88297D02*
D03*
D29*
X55000Y135000D02*
D03*
X60905D02*
D03*
D30*
X161250Y41693D02*
D03*
Y35000D02*
D03*
D31*
X170000D02*
D03*
Y43071D02*
D03*
D32*
X140000Y168356D02*
D03*
Y176033D02*
D03*
D33*
X146250Y38592D02*
D03*
Y43907D02*
D03*
X157500Y134784D02*
D03*
Y140099D02*
D03*
D34*
X169320Y77549D02*
D03*
D35*
X173060D02*
D03*
X176800D02*
D03*
Y86804D02*
D03*
X169320D02*
D03*
D36*
X121250Y67884D02*
D03*
Y59616D02*
D03*
D37*
X125984Y139321D02*
D03*
X124016D02*
D03*
X122047D02*
D03*
X120079D02*
D03*
X118110D02*
D03*
X139764D02*
D03*
X137795D02*
D03*
X135827D02*
D03*
X133858D02*
D03*
X131890D02*
D03*
X129921D02*
D03*
X127953D02*
D03*
X116142D02*
D03*
X114173D02*
D03*
X112205D02*
D03*
X110236D02*
D03*
Y93652D02*
D03*
X112205D02*
D03*
X114173D02*
D03*
X116142D02*
D03*
X118110D02*
D03*
X120079D02*
D03*
X122047D02*
D03*
X124016D02*
D03*
X125984D02*
D03*
X127953D02*
D03*
X129921D02*
D03*
X131890D02*
D03*
X133858D02*
D03*
X135827D02*
D03*
X137795D02*
D03*
X139764D02*
D03*
D38*
X147835Y101722D02*
D03*
Y103691D02*
D03*
Y105659D02*
D03*
Y107628D02*
D03*
Y109597D02*
D03*
Y111565D02*
D03*
Y113533D02*
D03*
Y115502D02*
D03*
Y117471D02*
D03*
Y119439D02*
D03*
Y121407D02*
D03*
Y123376D02*
D03*
Y125345D02*
D03*
Y127313D02*
D03*
Y129281D02*
D03*
Y131250D02*
D03*
X102165D02*
D03*
Y129281D02*
D03*
Y127313D02*
D03*
Y125345D02*
D03*
Y123376D02*
D03*
Y121407D02*
D03*
Y119439D02*
D03*
Y117471D02*
D03*
Y115502D02*
D03*
Y113533D02*
D03*
Y111565D02*
D03*
Y109597D02*
D03*
Y107628D02*
D03*
Y105659D02*
D03*
Y103691D02*
D03*
Y101722D02*
D03*
D39*
X98750Y76250D02*
D03*
X88315D02*
D03*
D40*
X167500Y178721D02*
D03*
Y170847D02*
D03*
D41*
X156250Y74443D02*
D03*
Y84878D02*
D03*
M02*
