M48
;Layer_Color=9474304
;FILE_FORMAT=2:4
INCH,TZ
;TYPE=PLATED
T1F00S00C0.0157
T2F00S00C0.0276
T3F00S00C0.0335
T4F00S00C0.0400
T5F00S00C0.0402
T6F00S00C0.0433
;TYPE=NON_PLATED
T7F00S00C0.0394
T8F00S00C0.1250
%
T01
X2000Y1250
X3000
X4000
X6000
X7000
X8000
X9000
X10000
X9500Y2250
X11500
X12500
X13500
X14500
X15500
X15000Y1250
X14000
X13000
X12000
Y3250
X13000
X14000
X14625Y5000
Y6500
X15500Y6250
X15611Y6646
X13625Y7000
X13375Y7500
X13250Y8000
X12500Y8250
X12250Y8625
X10750Y8375
X10625Y7500
X11250Y6625
X11500Y6250
Y4250
X12500
X11000Y3250
X9500Y4250
X9250Y4875
X10000Y5250
X8375Y6625
X7941Y7543
X7375Y7250
X6750Y7125
X6500Y6750
X6125Y7250
X5750Y7000
X4500Y8250
X4125Y10250
X5413Y10439
X5000Y11250
X5625Y11875
X6125Y12875
X6875Y12500
X7000Y13250
X8000
X8500Y14750
X7375Y15000
X6000Y15250
X5000
X4000
X4500Y14250
X5000Y13250
X4000
X1000
X1500Y14250
X1000Y15250
X1500Y12250
X1000Y11250
X1500Y10250
X1000Y9250
X1500Y8250
X1000Y7250
X1500Y6250
X1000Y5250
X1500Y4250
X1000Y3250
X1500Y2250
X3875Y6125
X6125Y9625
X6500Y10250
X6875Y10000
X8000Y10625
X8750Y10250
X8000Y9250
X11750Y10125
X12120Y10630
X12750Y11125
X13125Y11368
X13235Y10320
X14000Y11000
X15473Y10986
X14625Y9250
X14205Y7840
X15500Y4250
X14749Y13500
X15000Y13875
X14500Y14259
X14000Y15608
X13625Y12500
X12125Y12000
X11625
X11125Y11625
X11250Y13375
X11957Y13021
X12500Y13375
X10750Y15375
X15875Y14375
X16750
X17125Y13750
X17210Y12537
X17125Y11625
Y11125
X17625
X20000Y11250
X20500Y12250
X20000Y13250
X20500Y14250
X20000Y15250
X18000
Y13250
X16147Y13030
X16668Y9418
X20000Y9250
X20500Y10250
Y8250
X20000Y7250
X20500Y6250
X20000Y5250
X20500Y4250
X20000Y3250
X19000Y1250
X18000
X17000
X16000
X18000Y7250
X20500Y16250
X20000Y17250
X20500Y18250
X20000Y19250
X18000
X17500Y20250
X18000Y21250
Y23250
X19000
X20000
X21000
Y21250
X17000Y23250
X16000
Y19250
X15500Y20250
X15000Y21250
Y23250
X14000
X13000
X12000
X11000
X10000
X9000
X8000
X7000
X6000
X5000
X4000
X3000
X2000
X2500Y22250
X3500
X4500
X5000Y21250
X4000
X4500Y20250
X5000Y19250
X4000
X4500Y18250
X5500
X6500
X8500
X9500
X10375Y18000
X11250Y17250
X11500Y15875
X12500Y16250
X12750Y18250
X12125Y18375
X11682Y19014
X13007Y19250
X14000
X14500Y18250
X13500
Y20250
X12000Y21250
X12500Y22250
X11500
X10500Y20250
X9000Y21250
X8000
Y19250
X9000
X9125Y17500
X8500Y16250
X9625Y16000
X10250Y16125
X6500Y16250
X5500
X4500
X4000Y17250
X1000
X1500Y18250
X1000Y19250
X1500Y20250
X1000Y21250
X1500Y16250
X6500Y20250
X15250Y15625
T02
X5075Y17125
Y20125
X8075
Y17125
T03
X16109Y20875
X14141
T04
X2756Y2311
Y3311
Y4311
Y5311
Y6311
Y7311
Y8311
Y9311
Y10311
Y11311
Y12311
Y13311
Y14311
Y15311
X18898
Y14311
Y13311
Y12311
Y11311
Y10311
Y9311
Y8311
Y7311
Y6311
Y5311
Y4311
Y3311
Y2311
Y16311
Y17311
Y18311
Y19311
Y20311
Y21311
X2756
Y20311
Y19311
Y18311
Y17311
Y16311
T05
X13500Y3750
Y5125
X12078Y7750
X16973Y6456
X12875Y17375
X11375Y19875
T06
X5750Y22500
X6750
X7750
X8750
X9750
X10750
T07
X5876Y1878
X9016
T08
X1000Y1000
X20500
Y22500
X1000
M30
